<svg width="33" height="10" viewBox="0 0 33 10" fill="none" xmlns="http://www.w3.org/2000/svg">
<path d="M5.04623 0.147705L6.4214 3.10107L9.51009 3.57407L7.2727 5.86985L7.79657 9.12316L5.03531 7.5888L2.27406 9.12316L2.79793 5.86985L0.560547 3.57407L3.64923 3.10107L5.04623 0.147705ZM15.1417 3.10107L12.0531 3.57407L14.2904 5.86985L13.7666 9.12316L16.5278 7.5888L19.2891 9.12316L18.7652 5.86985L21.0026 3.57407L17.9139 3.10107L16.5387 0.147705L15.1417 3.10107ZM26.6124 3.10107L23.5237 3.57407L25.7611 5.86985L25.2373 9.12316L27.9985 7.5888L30.7598 9.12316L30.2359 5.86985L32.4733 3.57407L29.3846 3.10107L28.0094 0.147705L26.6124 3.10107Z" fill="#1A8BFF"/>
</svg>
