<svg width="41" height="23" viewBox="0 0 41 23" fill="none" xmlns="http://www.w3.org/2000/svg">
<path d="M20.5 0.472656C7.378 0.472656 0.5 10.1367 0.5 11.6727C0.5 13.2047 7.378 22.8727 20.5 22.8727C33.62 22.8727 40.5 13.2047 40.5 11.6727C40.5 10.1367 33.62 0.472656 20.5 0.472656ZM20.5 20.2867C15.59 20.2867 11.61 16.4307 11.61 11.6727C11.61 6.91466 15.59 3.05466 20.5 3.05466C25.41 3.05466 29.388 6.91466 29.388 11.6727C29.388 16.4307 25.41 20.2867 20.5 20.2867ZM20.5 11.6727C19.686 10.7787 21.826 7.36466 20.5 7.36466C18.044 7.36466 16.054 9.29466 16.054 11.6727C16.054 14.0507 18.044 15.9807 20.5 15.9807C22.954 15.9807 24.946 14.0507 24.946 11.6727C24.946 10.5787 21.192 12.4307 20.5 11.6727Z" fill="#007EFF"/>
</svg>
