<svg width="1440" height="381" viewBox="0 0 1440 381" fill="none" xmlns="http://www.w3.org/2000/svg">
<g clip-path="url(#clip0)">
<path fill-rule="evenodd" clip-rule="evenodd" d="M-0.640188 343.514C28.8149 363.537 63.5934 379.396 118.558 379.396C268.689 379.396 268.689 326.619 418.81 326.619C568.941 326.619 568.941 380.549 719.063 380.549C869.184 380.549 869.193 285.52 1019.31 285.52C1169.45 285.52 1169.45 377.215 1319.57 377.215C1376.09 377.215 1410.57 372.484 1440.57 366.582V380.621L-0.658203 380.549V343.514H-0.640188Z" fill="#007EFF"/>
<path opacity="0.5" d="M-0.640137 332.359C28.8059 358.428 63.6205 379.045 118.558 379.045C268.689 379.045 268.689 310.273 418.81 310.273C568.941 310.273 568.941 380.549 719.063 380.549C869.184 380.549 869.202 256.721 1019.32 256.721C1169.45 256.721 1169.45 376.197 1319.58 376.197C1376.05 376.197 1410.6 370.043 1440.58 362.365" stroke="#C5C9E0"/>
<path d="M-0.640137 331.422C28.7969 357.247 63.6295 377.684 118.558 377.684C268.689 377.684 268.689 301.28 418.811 301.28C568.941 301.28 568.941 379.648 719.063 379.648C869.184 379.648 869.193 246.413 1019.32 246.413C1169.45 246.413 1169.45 370.538 1319.57 370.538C1375.78 370.538 1410.68 361.951 1440.57 351.201" stroke="#5468FF"/>
<path opacity="0.5" d="M-0.640137 330.458C28.8059 356.058 63.6205 376.323 118.558 376.323C268.689 376.323 268.689 292.332 418.811 292.332C568.941 292.332 568.941 378.756 719.063 378.756C869.184 378.756 869.193 236.158 1019.32 236.158C1169.45 236.158 1169.45 364.915 1319.57 364.915C1376.05 364.915 1410.59 353.733 1440.57 339.775" stroke="#C5C9E0"/>
<path d="M-0.640137 330.133C28.8059 355.652 63.6205 375.846 118.558 375.846C268.689 375.846 268.689 283.754 418.811 283.754C568.941 283.754 568.941 378.747 719.063 378.747C869.184 378.747 869.193 225.94 1019.32 225.94C1169.45 225.94 1169.45 360.077 1319.57 360.077C1375.74 360.077 1410.7 346.47 1440.57 329.43" stroke="#C5C9E0" stroke-dasharray="10 10"/>
<path opacity="0.5" d="M-0.640137 329.16C28.8059 354.463 63.6205 374.485 118.558 374.485C268.689 374.485 268.689 274.779 418.811 274.779C568.941 274.779 568.941 377.846 719.063 377.846C869.184 377.846 869.193 215.649 1019.32 215.649C1169.45 215.649 1169.45 354.454 1319.57 354.454C1375.93 354.454 1410.63 338.252 1440.57 318.014" stroke="#C5C9E0"/>
<path opacity="0.5" d="M-0.640137 328.935C28.8059 354.102 63.6205 374.016 118.558 374.016C268.689 374.016 268.689 266.381 418.811 266.381C568.941 266.381 568.941 377.846 719.063 377.846C869.184 377.846 869.193 205.737 1019.32 205.737C1169.45 205.737 1169.45 349.651 1319.57 349.651C1375.53 349.651 1410.76 331.169 1440.57 307.975" stroke="#C5C9E0"/>
<path opacity="0.5" d="M-0.640137 327.908C28.8059 352.886 63.6295 372.647 118.558 372.647C268.689 372.647 268.689 257.271 418.811 257.271C568.941 257.271 568.941 376.945 719.063 376.945C869.184 376.945 869.193 195.222 1019.32 195.222C1169.45 195.222 1169.45 343.992 1319.57 343.992C1375.98 343.992 1410.61 322.69 1440.57 296.09" stroke="#C5C9E0"/>
<path opacity="0.5" d="M-0.640137 327.781C28.8059 352.57 63.6205 372.187 118.558 372.187C268.689 372.187 268.689 249.116 418.811 249.116C568.941 249.116 568.941 376.954 719.063 376.954C869.184 376.954 869.193 185.688 1019.32 185.688C1169.45 185.688 1169.45 339.261 1319.57 339.261C1375.68 339.261 1410.72 315.698 1440.57 286.187" stroke="#C5C9E0"/>
<path opacity="0.5" d="M-0.640137 326.745C28.8059 351.345 63.6115 370.826 118.558 370.826C268.689 370.826 268.689 240.042 418.811 240.042C568.941 240.042 568.941 376.044 719.063 376.044C869.184 376.044 869.193 175.217 1019.32 175.217C1169.45 175.217 1169.45 333.611 1319.57 333.611C1375.87 333.611 1410.65 307.39 1440.57 274.617" stroke="#C5C9E0"/>
<path opacity="0.5" d="M-0.640137 325.7C28.8059 350.128 63.6025 369.466 118.558 369.466C268.689 369.466 268.689 230.977 418.811 230.977C568.941 230.977 568.941 375.152 719.063 375.152C869.184 375.152 869.193 164.756 1019.32 164.756C1169.45 164.756 1169.45 327.98 1319.57 327.98C1375.76 327.98 1410.69 299.37 1440.57 263.569" stroke="#C5C9E0"/>
<path opacity="0.5" d="M-0.640137 324.681C28.8059 348.912 63.6205 368.096 118.558 368.096C268.689 368.096 268.689 221.885 418.81 221.885C568.941 221.885 568.941 374.242 719.063 374.242C869.184 374.242 869.202 154.267 1019.32 154.267C1169.45 154.267 1169.45 322.33 1319.58 322.33C1375.61 322.33 1410.74 289.881 1440.58 249.215" stroke="#C5C9E0"/>
<path opacity="0.5" d="M-0.640137 324.853C28.8059 348.975 63.6205 368.069 118.558 368.069C268.689 368.069 268.536 198.312 418.666 198.312C568.797 198.312 568.941 374.701 719.072 374.701C869.202 374.701 869.347 116.989 1019.48 116.989C1169.61 116.989 1169.45 317.878 1319.59 317.878C1375.6 317.878 1410.76 276.671 1440.59 225.003" stroke="#C5C9E0"/>
<path opacity="0.5" d="M-0.640137 294.044C28.8059 333.314 63.6115 364.357 118.558 364.357C268.689 364.357 268.689 113.114 418.81 113.114C568.941 113.114 568.941 375.143 719.063 375.143C869.184 375.143 869.202 0.450439 1019.32 0.450439C1169.45 0.450439 1169.45 282.682 1319.58 282.682C1375.76 282.682 1410.7 227.877 1440.58 159.277" stroke="#C5C9E0"/>
</g>
<defs>
<clipPath id="clip0">
<rect x="-1" width="1442" height="381" fill="white"/>
</clipPath>
</defs>
</svg>
