<svg width="51" height="50" viewBox="0 0 51 50" fill="none" xmlns="http://www.w3.org/2000/svg">
<path opacity="0.46" d="M38.2029 37.2053C45.0522 30.3559 45.0522 19.251 38.2029 12.4017C31.3536 5.55236 20.2487 5.55236 13.3993 12.4017C6.55003 19.251 6.55003 30.3559 13.3993 37.2053C20.2487 44.0546 31.3536 44.0546 38.2029 37.2053Z" fill="#DCEDFF"/>
<path opacity="0.46" d="M49.158 29.3913C48.4571 28.7109 47.3422 28.7314 46.6618 29.4282C45.9814 30.1291 46.0019 31.244 46.6987 31.9244C47.3996 32.6048 48.5145 32.5843 49.1949 31.8875C49.8753 31.1866 49.8589 30.0717 49.158 29.3913Z" fill="#B3D8FF"/>
<path opacity="0.46" d="M5.41071 20.0293C6.09112 19.3284 6.07063 18.2136 5.37382 17.5331C4.67292 16.8527 3.55804 16.8732 2.87763 17.57C2.19722 18.2709 2.21771 19.3858 2.91452 20.0662C3.61132 20.7425 4.7303 20.7261 5.41071 20.0293Z" fill="#B3D8FF"/>
<path opacity="0.46" d="M6.02998 14.3075C6.44396 14.1108 6.62021 13.6148 6.42346 13.1967C6.40297 13.1516 6.36608 13.1229 6.33739 13.082C11.5265 4.53587 21.7572 0.412438 31.4797 3.0398C37.8452 4.76131 43.1245 9.16347 45.965 15.1273C47.3258 17.9883 48.0677 21.1444 48.1415 24.2964C48.1374 24.2964 48.1333 24.2964 48.1292 24.3005C47.7152 24.4972 47.539 24.9932 47.7357 25.4113C47.9324 25.8253 48.4284 26.0015 48.8465 25.8048C49.2605 25.608 49.4367 25.1121 49.24 24.694C49.1498 24.5013 48.9899 24.3661 48.8096 24.2923C48.7358 21.0419 47.9734 17.7915 46.5675 14.8404C43.6451 8.70439 38.21 4.16698 31.6559 2.39628C21.6425 -0.308958 11.1125 3.93744 5.76765 12.7418C5.61599 12.7254 5.46433 12.7336 5.31678 12.8032C4.90279 13 4.72654 13.4959 4.92328 13.914C5.12003 14.3321 5.61599 14.5084 6.02998 14.3075Z" fill="#B3D8FF"/>
<path opacity="0.46" d="M45.4933 34.7196C45.0794 34.9163 44.9031 35.4123 45.0998 35.8303C45.1244 35.8836 45.1654 35.9205 45.1982 35.9615C40.1771 44.7904 29.5898 49.25 19.7239 46.5816C13.3625 44.8642 8.0832 40.462 5.24681 34.5023C3.78352 31.4282 3.04163 28.0384 3.06622 24.6528C3.07851 24.6487 3.08671 24.6487 3.09901 24.6446C3.51299 24.4479 3.68925 23.9519 3.4925 23.5338C3.29576 23.1198 2.79979 22.9436 2.38171 23.1403C1.96773 23.3371 1.79148 23.833 1.98823 24.2511C2.0743 24.4356 2.22596 24.5626 2.39811 24.6405C2.37352 28.1286 3.1359 31.6208 4.64428 34.7892C7.56265 40.9211 12.9977 45.4544 19.5477 47.2251C29.7087 49.9713 40.6116 45.3806 45.7803 36.2853C45.9237 36.2976 46.0713 36.2894 46.2106 36.2197C46.6246 36.023 46.8009 35.527 46.6041 35.1089C46.4033 34.6991 45.9073 34.5228 45.4933 34.7196Z" fill="#B3D8FF"/>
<path d="M25.0131 41.2261C34.6996 41.2261 42.552 33.3736 42.552 23.6871C42.552 14.0006 34.6996 6.14819 25.0131 6.14819C15.3266 6.14819 7.47412 14.0006 7.47412 23.6871C7.47412 33.3736 15.3266 41.2261 25.0131 41.2261Z" fill="white"/>
<path d="M36.2135 13.8564C35.5781 14.0286 34.9223 13.6515 34.7502 13.0162C34.578 12.3809 34.9551 11.725 35.5904 11.5529C36.2257 11.3807 36.8816 11.7578 37.0537 12.3932C37.2259 13.0285 36.8488 13.6843 36.2135 13.8564Z" fill="white"/>
<path d="M14.1949 35.22C13.5596 35.3921 12.9038 35.015 12.7316 34.3797C12.5595 33.7444 12.9365 33.0886 13.5719 32.9164C14.2072 32.7443 14.863 33.1214 15.0352 33.7567C15.2073 34.392 14.8302 35.0478 14.1949 35.22Z" fill="white"/>
<path d="M32.2786 10.3851C32.2786 10.3892 32.2786 10.3892 32.2745 10.3933C32.2459 10.7048 32.4754 10.9753 32.7828 11.004C33.0943 11.0327 33.3648 10.8032 33.3935 10.4957C33.4222 10.1842 33.1927 9.91371 32.8853 9.88502C32.7418 9.87272 32.6106 9.91781 32.5 9.99569C30.5858 8.91769 28.4298 8.23728 26.2328 8.03234C21.6544 7.61016 17.1416 9.20461 13.8461 12.4058C8.81277 17.2916 7.6446 24.8827 10.9196 31.0309C10.8581 31.1129 10.8089 31.2031 10.8007 31.3138C10.772 31.6253 11.0016 31.8958 11.309 31.9245C11.6205 31.9532 11.891 31.7236 11.9197 31.4162C11.9484 31.1047 11.7188 30.8342 11.4114 30.8055C11.3786 30.8014 11.35 30.8137 11.3172 30.8178C8.14056 24.8458 9.27594 17.4802 14.1618 12.7337C17.3589 9.62679 21.7446 8.07743 26.1919 8.48731C28.3315 8.67996 30.4219 9.33987 32.2786 10.3851Z" fill="white"/>
<path d="M38.4313 15.902C38.4886 15.8241 38.5337 15.7339 38.5419 15.6315C38.5706 15.3199 38.3411 15.0494 38.0337 15.0207C37.7222 14.992 37.4516 15.2216 37.4229 15.529C37.3943 15.8405 37.6238 16.111 37.9312 16.1397C37.9681 16.1438 38.005 16.1315 38.0419 16.1274C41.4398 22.0953 40.3741 29.7889 35.4186 34.6091C32.2215 37.716 27.8398 39.2613 23.3967 38.8514C21.1055 38.6383 18.8757 37.9005 16.9164 36.7159C16.9164 36.7077 16.9205 36.7036 16.9246 36.6954C16.9533 36.3839 16.7238 36.1134 16.4164 36.0847C16.1049 36.056 15.8343 36.2855 15.8056 36.5929C15.777 36.9045 16.0065 37.175 16.3139 37.2037C16.4533 37.216 16.5762 37.1709 16.6828 37.1012C18.6994 38.3227 20.9948 39.085 23.3598 39.3023C27.9341 39.7245 32.4469 38.13 35.7383 34.9329C40.8373 29.9692 41.9317 22.0461 38.4313 15.902Z" fill="white"/>
<path fill-rule="evenodd" clip-rule="evenodd" d="M22.1833 23.653V33.2975C22.1833 33.4369 22.294 33.5476 22.4333 33.5476H26.0157C26.1551 33.5476 26.2658 33.4369 26.2658 33.2975V23.4972H28.8603C28.9915 23.4972 29.0981 23.3988 29.1104 23.2677L29.3604 20.3165C29.3727 20.1689 29.2579 20.0419 29.1104 20.0419H26.2658V17.9474C26.2658 17.4555 26.6633 17.0579 27.1552 17.0579H29.1554C29.2948 17.0579 29.4055 16.9472 29.4055 16.8079V13.8567C29.4055 13.7174 29.2948 13.6067 29.1554 13.6067H25.7739C23.7901 13.6067 22.1833 15.2134 22.1833 17.2014V20.046H20.3921C20.2528 20.046 20.1421 20.1607 20.1421 20.296V23.2472C20.1421 23.3865 20.2528 23.4972 20.3921 23.4972H22.1833V23.653Z" fill="#007EFF"/>
<path d="M45.7109 30.6947C45.01 30.0143 44.9936 28.8994 45.6741 28.1985C46.3545 27.4976 47.4693 27.4812 48.1702 28.1616C48.8712 28.842 48.8875 29.9569 48.2071 30.6578C47.5267 31.3546 46.4077 31.3751 45.7109 30.6947Z" fill="white"/>
<path d="M1.92286 18.8368C1.22196 18.1564 1.20556 17.0415 1.88597 16.3406C2.56638 15.6397 3.68126 15.6233 4.38216 16.3037C5.08307 16.9841 5.09946 18.099 4.41905 18.7999C3.73864 19.4967 2.62376 19.5131 1.92286 18.8368Z" fill="white"/>
<path d="M47.1537 23.0708C47.1496 23.0708 47.1455 23.0708 47.1414 23.0749C46.7274 23.2716 46.5512 23.7676 46.7479 24.1857C46.9446 24.5997 47.4406 24.7759 47.8587 24.5792C48.2768 24.3824 48.4489 23.8865 48.2522 23.4684C48.162 23.2757 48.0021 23.1405 47.8218 23.0667C47.748 19.8163 46.9856 16.5659 45.5797 13.6148C42.6572 7.47881 37.2222 2.94139 30.6681 1.17069C20.6547 -1.53454 10.1247 2.71186 4.77985 11.5162C4.6282 11.4998 4.47654 11.508 4.32898 11.5777C3.91499 11.7744 3.73875 12.2704 3.93549 12.6884C4.13224 13.1024 4.62819 13.2787 5.04628 13.0819C5.46026 12.8852 5.63651 12.3892 5.43977 11.9711C5.41927 11.9261 5.38238 11.8974 5.35369 11.8564C10.5428 3.31029 20.7735 -0.813148 30.496 1.81421C36.8615 3.53572 42.1408 7.93788 44.9813 13.9017C46.338 16.7627 47.0799 19.9188 47.1537 23.0708Z" fill="white"/>
<path d="M44.7886 35.0558C44.932 35.0681 45.0796 35.0599 45.2189 34.9902C45.6329 34.7934 45.8092 34.2975 45.6124 33.8794C45.4157 33.4654 44.9197 33.2892 44.5016 33.4859C44.0877 33.6827 43.9114 34.1786 44.1082 34.5967C44.1327 34.65 44.1737 34.6869 44.2065 34.7279C39.1854 43.5568 28.5981 48.0163 18.7322 45.348C12.3708 43.6305 7.09151 39.2284 4.25511 33.2687C2.79182 30.1945 2.04993 26.8048 2.07452 23.4192C2.08682 23.4151 2.09501 23.4151 2.10731 23.411C2.52129 23.2142 2.69755 22.7183 2.5008 22.3002C2.30406 21.8862 1.8081 21.7099 1.39001 21.9067C0.97603 22.1034 0.799783 22.5994 0.996528 23.0175C1.0826 23.2019 1.23426 23.329 1.40641 23.4069C1.38182 26.895 2.1442 30.3872 3.65258 33.5556C6.57095 39.6875 12.006 44.2208 18.556 45.9915C28.7211 48.7418 39.6199 44.1511 44.7886 35.0558Z" fill="white"/>
</svg>
