<svg width="50" height="49" viewBox="0 0 50 49" fill="none" xmlns="http://www.w3.org/2000/svg">
<path opacity="0.46" d="M29.619 42.4727C39.0362 40.2061 44.8329 30.7345 42.5662 21.3173C40.2996 11.9 30.8279 6.10337 21.4107 8.37001C11.9935 10.6366 6.19685 20.1083 8.46349 29.5255C10.7301 38.9427 20.2018 44.7394 29.619 42.4727Z" fill="#B3D8FF"/>
<path opacity="0.46" d="M48.8807 30.0053C48.1798 29.3249 47.0649 29.3454 46.3845 30.0422C45.7041 30.7431 45.7245 31.858 46.4214 32.5384C47.1223 33.2188 48.2371 33.1983 48.9175 32.5015C49.598 31.8047 49.5816 30.6816 48.8807 30.0053Z" fill="#B3D8FF"/>
<path opacity="0.46" d="M5.12946 20.6394C5.80987 19.9385 5.78938 18.8237 5.09257 18.1433C4.39167 17.4628 3.27679 17.4833 2.59638 18.1801C1.91597 18.881 1.93646 19.9959 2.63327 20.6763C3.33417 21.3567 4.45315 21.3403 5.12946 20.6394Z" fill="#B3D8FF"/>
<path opacity="0.46" d="M5.75262 14.9215C6.1666 14.7248 6.34286 14.2288 6.14612 13.8107C6.12563 13.7657 6.08873 13.737 6.06003 13.696C11.2533 5.14988 21.4799 1.02645 31.2023 3.65381C37.5678 5.37532 42.8472 9.77748 45.6876 15.7413C47.0485 18.6023 47.7904 21.7584 47.8641 24.9104C47.86 24.9104 47.8559 24.9104 47.8518 24.9145C47.4379 25.1112 47.2616 25.6072 47.4583 26.0253C47.6551 26.4393 48.1511 26.6155 48.5691 26.4188C48.9831 26.222 49.1594 25.7261 48.9626 25.308C48.8724 25.1153 48.7126 24.9801 48.5322 24.9063C48.4585 21.6559 47.6961 18.4055 46.2902 15.4544C43.3677 9.31841 37.9326 4.78099 31.3786 3.01029C21.3651 0.305055 10.8352 4.55146 5.4903 13.3558C5.33865 13.3394 5.18699 13.3476 5.03943 13.4173C4.62544 13.614 4.4492 14.11 4.64594 14.528C4.84269 14.942 5.33864 15.1183 5.75262 14.9215Z" fill="#B3D8FF"/>
<path opacity="0.46" d="M45.216 35.3338C44.802 35.5306 44.6258 36.0265 44.8225 36.4446C44.8471 36.4979 44.8881 36.5348 44.9209 36.5758C39.8998 45.4047 29.3125 49.8642 19.4466 47.1959C13.0852 45.4784 7.80585 41.0763 4.96946 35.1166C3.50617 32.0424 2.76429 28.6527 2.78888 25.2671C2.80118 25.263 2.80937 25.263 2.82167 25.2589C3.23565 25.0621 3.4119 24.5662 3.21515 24.1481C3.01841 23.7341 2.52245 23.5578 2.10437 23.7546C1.69039 23.9513 1.51414 24.4473 1.71088 24.8654C1.79696 25.0498 1.94862 25.1769 2.12077 25.2548C2.09617 28.7429 2.85856 32.2351 4.36694 35.4035C7.28531 41.5354 12.7204 46.0687 19.2703 47.8394C29.4314 50.5856 40.3343 45.9949 45.5029 36.8996C45.6464 36.9119 45.7939 36.9037 45.9333 36.834C46.3473 36.6372 46.5235 36.1413 46.3268 35.7232C46.1259 35.3092 45.63 35.133 45.216 35.3338Z" fill="#B3D8FF"/>
<path d="M24.2426 41.728C33.9291 41.728 41.7815 33.8756 41.7815 24.1891C41.7815 14.5026 33.9291 6.65015 24.2426 6.65015C14.5561 6.65015 6.70361 14.5026 6.70361 24.1891C6.70361 33.8756 14.5561 41.728 24.2426 41.728Z" fill="#007EFF"/>
<path d="M35.6456 14.4707C35.0103 14.6429 34.3544 14.2658 34.1823 13.6304C34.0101 12.9951 34.3872 12.3393 35.0225 12.1672C35.6579 11.995 36.3137 12.3721 36.4858 13.0074C36.6539 13.6427 36.2809 14.2986 35.6456 14.4707Z" fill="white"/>
<path d="M13.6265 35.8296C12.9912 36.0017 12.3354 35.6247 12.1632 34.9893C11.9911 34.354 12.3682 33.6982 13.0035 33.526C13.6388 33.3539 14.2946 33.731 14.4668 34.3663C14.6389 35.0016 14.2619 35.6574 13.6265 35.8296Z" fill="white"/>
<path d="M31.7108 10.9991C31.7108 11.0032 31.7108 11.0032 31.7067 11.0073C31.678 11.3188 31.9075 11.5893 32.2149 11.618C32.5264 11.6467 32.797 11.4172 32.8257 11.1098C32.8544 10.7982 32.6248 10.5277 32.3174 10.499C32.1739 10.4867 32.0428 10.5318 31.9321 10.6097C30.018 9.5317 27.862 8.8513 25.665 8.64636C21.0866 8.22417 16.5738 9.81862 13.2783 13.0198C8.2449 17.9056 7.07673 25.4967 10.3517 31.645C10.2902 31.7269 10.241 31.8171 10.2328 31.9278C10.2042 32.2393 10.4337 32.5098 10.7411 32.5385C11.0526 32.5672 11.3231 32.3377 11.3518 32.0303C11.3805 31.7187 11.151 31.4482 10.8436 31.4195C10.8108 31.4154 10.7821 31.4277 10.7493 31.4318C7.57269 25.4598 8.70807 18.0942 13.5939 13.3477C16.791 10.2408 21.1767 8.69144 25.624 9.10133C27.7636 9.29397 29.8499 9.94979 31.7108 10.9991Z" fill="white"/>
<path d="M37.8629 16.5116C37.9203 16.4337 37.9654 16.3436 37.9736 16.2411C38.0023 15.9296 37.7727 15.659 37.4653 15.6304C37.1579 15.6017 36.8833 15.8312 36.8546 16.1386C36.8259 16.4501 37.0554 16.7206 37.3628 16.7493C37.3997 16.7534 37.4366 16.7411 37.4735 16.737C40.8714 22.705 39.8057 30.3985 34.8502 35.2187C31.6532 38.3256 27.2715 39.8709 22.8283 39.461C20.5371 39.2479 18.3073 38.5101 16.3481 37.3255C16.3481 37.3173 16.3522 37.3132 16.3563 37.305C16.385 36.9935 16.1554 36.723 15.848 36.6943C15.5365 36.6656 15.266 36.8951 15.2373 37.2026C15.2086 37.5141 15.4381 37.7846 15.7455 37.8133C15.8808 37.8256 16.0079 37.7805 16.1144 37.7108C18.1311 38.9323 20.4264 39.6947 22.7914 39.9119C27.3658 40.3341 31.8786 38.7396 35.17 35.5425C40.2689 30.5829 41.3633 22.6558 37.8629 16.5116Z" fill="white"/>
<path d="M14.6636 29.4723C14.6636 29.3658 14.6636 29.2633 14.6636 29.1567C14.7947 29.0091 14.93 28.8821 15.139 28.837C16.7909 28.5091 17.8935 27.4557 18.7255 26.0744C19.4264 24.9144 19.3117 24.648 18.0246 24.1889C17.9508 24.1602 17.873 24.1397 17.8033 24.111C17.5246 23.9963 17.2499 23.8733 17.0163 23.6725C16.4384 23.1724 16.7827 22.4469 17.4631 22.283C17.959 22.1641 18.3935 22.4838 18.8772 22.5453C19.201 22.5863 19.3281 22.4756 19.2871 22.1313C19.1846 21.2459 19.1887 20.3524 19.2297 19.4629C19.3117 17.766 20.1437 16.4749 21.5578 15.6346C23.6195 14.4091 25.7796 14.3968 27.8577 15.6141C29.1571 16.3765 29.9932 17.5283 30.1736 19.0736C30.2925 20.0778 30.2433 21.0861 30.1654 22.0944C30.1285 22.533 30.2187 22.6109 30.6531 22.5084C31.1901 22.3813 31.641 22.1067 32.1943 22.3526C32.4935 22.4838 32.7559 22.7666 32.7477 23.0904C32.7436 23.3118 32.6124 23.5208 32.4444 23.6643C32.1861 23.8897 31.85 24.0127 31.5385 24.1397C31.2967 24.2381 31.0425 24.316 30.8089 24.4266C30.3211 24.6562 30.1818 24.9554 30.4113 25.4391C31.2024 27.1073 32.3624 28.3779 34.2396 28.8165C34.4692 28.8698 34.6536 28.9641 34.7889 29.1485C34.7889 29.2551 34.7889 29.3576 34.7889 29.4641C34.6126 29.8289 34.2929 30.0298 33.9322 30.1691C33.5633 30.3085 33.1985 30.4642 32.801 30.4888C32.2558 30.5257 31.973 30.7594 31.8869 31.3291C31.809 31.866 31.6451 31.9439 31.0958 31.8988C30.9647 31.8906 30.8376 31.866 30.7105 31.8415C29.6325 31.6488 28.6242 31.7595 27.7389 32.4727C27.5667 32.612 27.3741 32.7268 27.1896 32.8498C25.6813 33.8294 24.1401 33.9401 22.5661 33.0219C22.1358 32.7719 21.73 32.485 21.3119 32.2104C20.9676 31.9849 20.5946 31.8578 20.1806 31.7964C19.5289 31.698 18.9018 31.8456 18.2664 31.9152C17.9385 31.9521 17.6229 31.8578 17.6065 31.5217C17.5615 30.7061 17.0655 30.5093 16.3769 30.4314C16.0572 30.3946 15.7416 30.2675 15.4424 30.1404C15.1144 30.0134 14.8193 29.8166 14.6636 29.4723Z" fill="white"/>
<path d="M45.1426 31.3087C44.4417 30.6283 44.4253 29.5134 45.1057 28.8125C45.7861 28.1116 46.901 28.0952 47.6019 28.7756C48.3028 29.456 48.3192 30.5709 47.6388 31.2718C46.9584 31.9686 45.8394 31.985 45.1426 31.3087Z" fill="#007EFF"/>
<path d="M1.3545 19.4508C0.653597 18.7704 0.637203 17.6555 1.31761 16.9546C1.99802 16.2537 3.1129 16.2373 3.8138 16.9177C4.51471 17.5981 4.5311 18.713 3.85069 19.4139C3.17028 20.1107 2.0554 20.1271 1.3545 19.4508Z" fill="white"/>
<path d="M46.5853 23.6848C46.5812 23.6848 46.5771 23.6848 46.573 23.6889C46.159 23.8857 45.9828 24.3816 46.1795 24.7997C46.3763 25.2137 46.8722 25.3899 47.2903 25.1932C47.7043 24.9964 47.8806 24.5005 47.6838 24.0824C47.5936 23.8898 47.4338 23.7545 47.2534 23.6807C47.1796 20.4303 46.4173 17.18 45.0114 14.2288C42.0889 8.09282 36.6538 3.5554 30.0998 1.7847C20.0863 -0.920531 9.55638 3.32587 4.21149 12.1302C4.05984 12.1138 3.90818 12.122 3.76062 12.1917C3.34664 12.3884 3.17039 12.8844 3.36713 13.3025C3.56388 13.7164 4.05983 13.8927 4.47792 13.6959C4.8919 13.4992 5.06815 13.0032 4.8714 12.5852C4.85091 12.5401 4.81402 12.5114 4.78533 12.4704C9.97446 3.9243 20.2052 -0.199131 29.9276 2.42823C36.2931 4.14974 41.5724 8.55189 44.4129 14.5157C45.7697 17.3767 46.5116 20.5287 46.5853 23.6848Z" fill="white"/>
<path d="M44.2202 35.6698C44.3637 35.6821 44.5112 35.6739 44.6506 35.6042C45.0646 35.4075 45.2408 34.9115 45.0441 34.4934C44.8473 34.0794 44.3514 33.9032 43.9333 34.0999C43.5193 34.2967 43.343 34.7926 43.5398 35.2107C43.5644 35.264 43.6054 35.3009 43.6382 35.3419C38.6171 44.1708 28.0298 48.6303 18.1639 45.962C11.8025 44.2446 6.52315 39.8424 3.68675 33.8827C2.22347 30.8085 1.48157 27.4188 1.50617 24.0332C1.51846 24.0291 1.52665 24.0291 1.53895 24.025C1.95293 23.8282 2.12919 23.3323 1.93245 22.9142C1.7357 22.5002 1.23974 22.324 0.821654 22.5207C0.407671 22.7174 0.231424 23.2134 0.428168 23.6315C0.514244 23.8159 0.665901 23.943 0.838053 24.0209C0.81346 27.509 1.57585 31.0012 3.08422 34.1696C6.0026 40.3015 11.4377 44.8348 17.9876 46.6055C28.1486 49.3558 39.0516 44.7651 44.2202 35.6698Z" fill="white"/>
<path d="M24.2426 41.8921C33.9291 41.8921 41.7815 34.0396 41.7815 24.3532C41.7815 14.6667 33.9291 6.81421 24.2426 6.81421C14.5561 6.81421 6.70361 14.6667 6.70361 24.3532C6.70361 34.0396 14.5561 41.8921 24.2426 41.8921Z" fill="white"/>
<path d="M35.6456 14.6345C35.0103 14.8067 34.3544 14.4296 34.1823 13.7943C34.0101 13.1589 34.3872 12.5031 35.0225 12.331C35.6579 12.1588 36.3137 12.5359 36.4858 13.1712C36.6539 13.8065 36.2809 14.4624 35.6456 14.6345Z" fill="white"/>
<path d="M13.6265 35.9936C12.9912 36.1658 12.3354 35.7887 12.1632 35.1534C11.9911 34.5181 12.3682 33.8623 13.0035 33.6901C13.6388 33.518 14.2946 33.895 14.4668 34.5304C14.6389 35.1657 14.2619 35.8215 13.6265 35.9936Z" fill="white"/>
<path d="M31.7108 11.1627C31.7108 11.1668 31.7108 11.1668 31.7067 11.1709C31.678 11.4824 31.9075 11.7529 32.2149 11.7816C32.5264 11.8103 32.797 11.5808 32.8257 11.2733C32.8544 10.9618 32.6248 10.6913 32.3174 10.6626C32.1739 10.6503 32.0428 10.6954 31.9321 10.7733C30.018 9.69528 27.862 9.01487 25.665 8.80993C21.0866 8.38775 16.5738 9.9822 13.2783 13.1834C8.2449 18.0692 7.07673 25.6603 10.3517 31.8085C10.2902 31.8905 10.241 31.9807 10.2328 32.0914C10.2042 32.4029 10.4337 32.6734 10.7411 32.7021C11.0526 32.7308 11.3231 32.5012 11.3518 32.1938C11.3805 31.8823 11.151 31.6118 10.8436 31.5831C10.8108 31.579 10.7821 31.5913 10.7493 31.5954C7.57269 25.6234 8.70807 18.2578 13.5939 13.5113C16.791 10.4044 21.1767 8.85502 25.624 9.2649C27.7636 9.45755 29.8499 10.1134 31.7108 11.1627Z" fill="white"/>
<path d="M37.8629 16.6757C37.9203 16.5978 37.9654 16.5076 37.9736 16.4051C38.0023 16.0936 37.7727 15.8231 37.4653 15.7944C37.1538 15.7657 36.8833 15.9953 36.8546 16.3027C36.8259 16.6142 37.0554 16.8847 37.3628 16.9134C37.3997 16.9175 37.4366 16.9052 37.4735 16.9011C40.8714 22.869 39.8057 30.5666 34.8502 35.3828C31.6532 38.4897 27.2715 40.035 22.8283 39.6251C20.5371 39.4119 18.3073 38.6741 16.3481 37.4896C16.3481 37.4814 16.3522 37.4773 16.3563 37.4691C16.385 37.1576 16.1554 36.8871 15.848 36.8584C15.5365 36.8297 15.266 37.0592 15.2373 37.3666C15.2086 37.6781 15.4381 37.9487 15.7455 37.9773C15.8808 37.9896 16.0079 37.9446 16.1144 37.8749C18.1311 39.0963 20.4264 39.8587 22.7914 40.076C27.3658 40.4981 31.8786 38.9037 35.17 35.7066C40.2689 30.747 41.3633 22.8239 37.8629 16.6757Z" fill="white"/>
<path d="M32.7108 25.2793V31.5423H29.0793V25.6973C29.0793 24.23 28.5546 23.2298 27.2389 23.2298C26.2347 23.2298 25.6403 23.9061 25.378 24.5579C25.2837 24.7915 25.2591 25.1153 25.2591 25.4432V31.5423H21.6276C21.6276 31.5423 21.6767 21.6436 21.6276 20.6189H25.2591V22.1682C25.2509 22.1805 25.2427 22.1928 25.2345 22.2051H25.2591V22.1682C25.7428 21.4263 26.6036 20.3647 28.5341 20.3647C30.9196 20.3647 32.7108 21.9264 32.7108 25.2793ZM17.8279 15.356C16.586 15.356 15.7744 16.1716 15.7744 17.2414C15.7744 18.2907 16.5655 19.131 17.7828 19.131H17.8074C19.074 19.131 19.861 18.2907 19.861 17.2414C19.8323 16.1716 19.0699 15.356 17.8279 15.356ZM15.9875 31.5464H19.6191V20.623H15.9875V31.5464Z" fill="#007EFF"/>
<path d="M45.1426 31.4728C44.4417 30.7924 44.4253 29.6775 45.1057 28.9766C45.7861 28.2757 46.901 28.2593 47.6019 28.9397C48.3028 29.6201 48.3192 30.735 47.6388 31.4359C46.9584 32.1327 45.8394 32.1491 45.1426 31.4728Z" fill="white"/>
<path d="M1.3545 19.6146C0.653597 18.9342 0.637203 17.8193 1.31761 17.1184C1.99802 16.4175 3.1129 16.4011 3.8138 17.0815C4.51471 17.7619 4.5311 18.8768 3.85069 19.5777C3.17028 20.2745 2.0554 20.2909 1.3545 19.6146Z" fill="white"/>
<path d="M46.5853 23.8489C46.5812 23.8489 46.5771 23.8489 46.573 23.853C46.159 24.0497 45.9828 24.5457 46.1795 24.9638C46.3763 25.3777 46.8722 25.554 47.2903 25.3573C47.7043 25.1605 47.8806 24.6645 47.6838 24.2465C47.5936 24.0538 47.4338 23.9186 47.2534 23.8448C47.1796 20.5944 46.4173 17.344 45.0114 14.3929C42.0889 8.25689 36.6538 3.71947 30.0998 1.94877C20.0863 -0.756468 9.55638 3.48993 4.21149 12.2942C4.05984 12.2778 3.90818 12.286 3.76062 12.3557C3.34664 12.5525 3.17039 13.0484 3.36713 13.4665C3.56388 13.8805 4.05983 14.0567 4.47792 13.86C4.8919 13.6633 5.06815 13.1673 4.8714 12.7492C4.85091 12.7041 4.81402 12.6754 4.78533 12.6344C9.97446 4.08836 20.2052 -0.0350746 29.9276 2.59228C36.2931 4.3138 41.5724 8.71596 44.4129 14.6798C45.7697 17.5408 46.5116 20.6969 46.5853 23.8489Z" fill="white"/>
<path d="M44.2202 35.8338C44.3637 35.8461 44.5112 35.8379 44.6506 35.7683C45.0646 35.5715 45.2408 35.0756 45.0441 34.6575C44.8473 34.2435 44.3514 34.0672 43.9333 34.264C43.5193 34.4607 43.343 34.9567 43.5398 35.3748C43.5644 35.4281 43.6054 35.4649 43.6382 35.5059C38.6171 44.3348 28.0298 48.7944 18.1639 46.126C11.8025 44.4086 6.52315 40.0065 3.68675 34.0467C2.22347 30.9726 1.48157 27.5829 1.50617 24.1972C1.51846 24.1931 1.52665 24.1931 1.53895 24.189C1.95293 23.9923 2.12919 23.4963 1.93245 23.0783C1.7357 22.6643 1.23974 22.488 0.821654 22.6848C0.407671 22.8815 0.231424 23.3775 0.428168 23.7955C0.514244 23.98 0.665901 24.1071 0.838053 24.1849C0.81346 27.6731 1.57585 31.1653 3.08422 34.3337C6.0026 40.4655 11.4377 44.9989 17.9876 46.7696C28.1486 49.5199 39.0516 44.9292 44.2202 35.8338Z" fill="white"/>
</svg>
