<svg width="51" height="50" viewBox="0 0 51 50" fill="none" xmlns="http://www.w3.org/2000/svg">
<path opacity="0.46" d="M37.6824 37.2053C44.5317 30.3559 44.5317 19.251 37.6824 12.4017C30.8331 5.55236 19.7282 5.55236 12.8788 12.4017C6.02952 19.251 6.02952 30.3559 12.8788 37.2053C19.7282 44.0546 30.8331 44.0546 37.6824 37.2053Z" fill="#B3D8FF"/>
<path opacity="0.46" d="M48.6399 29.3891C47.939 28.7087 46.8241 28.7292 46.1437 29.426C45.4633 30.1269 45.4838 31.2418 46.1806 31.9222C46.8815 32.6026 47.9964 32.5821 48.6768 31.8853C49.3572 31.1844 49.3408 30.0695 48.6399 29.3891Z" fill="#B3D8FF"/>
<path opacity="0.46" d="M4.88874 20.0276C5.56915 19.3267 5.54865 18.2118 4.85185 17.5314C4.15095 16.851 3.03606 16.8715 2.35566 17.5683C1.67525 18.2692 1.69574 19.3841 2.39254 20.0645C3.09345 20.7408 4.21243 20.7244 4.88874 20.0276Z" fill="#B3D8FF"/>
<path opacity="0.46" d="M5.51191 14.3056C5.92589 14.1089 6.10214 13.6129 5.9054 13.1948C5.8849 13.1497 5.84801 13.121 5.81932 13.0801C11.0126 4.53807 21.2392 0.414635 30.9657 3.04199C37.3312 4.76351 42.6105 9.16566 45.451 15.1295C46.8118 17.9905 47.5537 21.1466 47.6275 24.2986C47.6234 24.2986 47.6193 24.2986 47.6152 24.3027C47.2012 24.4994 47.025 24.9954 47.2217 25.4135C47.4185 25.8275 47.9144 26.0037 48.3325 25.807C48.7465 25.6102 48.9227 25.1143 48.726 24.6962C48.6358 24.5035 48.476 24.3683 48.2956 24.2945C48.2218 21.0441 47.4595 17.7937 46.0536 14.8426C43.127 8.70659 37.6919 4.16917 31.1379 2.39847C21.1244 -0.306761 10.5945 3.93964 5.24958 12.744C5.09792 12.7276 4.94627 12.7358 4.79871 12.8054C4.38472 13.0022 4.20847 13.4981 4.40522 13.9162C4.60196 14.3302 5.09792 14.5065 5.51191 14.3056Z" fill="#B3D8FF"/>
<path opacity="0.46" d="M44.9758 34.7176C44.5618 34.9143 44.3855 35.4103 44.5823 35.8284C44.6069 35.8817 44.6479 35.9186 44.6806 35.9595C39.6596 44.7885 29.0723 49.248 19.2063 46.5797C12.8449 44.8622 7.56563 40.4601 4.72923 34.5004C3.26594 31.4262 2.52405 28.0365 2.54864 24.6508C2.56094 24.6467 2.56914 24.6467 2.58143 24.6426C2.99542 24.4459 3.17167 23.9499 2.97492 23.5319C2.77818 23.1179 2.28222 22.9416 1.86414 23.1384C1.45015 23.3351 1.2739 23.8311 1.47065 24.2492C1.55672 24.4336 1.70838 24.5607 1.88053 24.6385C1.85594 28.1267 2.61832 31.6189 4.1267 34.7873C7.04507 40.9191 12.4801 45.4525 19.0301 47.2232C29.1911 49.9694 40.094 45.3787 45.2627 36.2834C45.4061 36.2957 45.5537 36.2875 45.6931 36.2178C46.107 36.021 46.2833 35.5251 46.0865 35.107C45.8857 34.6971 45.3897 34.5209 44.9758 34.7176Z" fill="#B3D8FF"/>
<path d="M24.0507 41.1118C33.7372 41.1118 41.5896 33.2594 41.5896 23.5729C41.5896 13.8864 33.7372 6.03394 24.0507 6.03394C14.3642 6.03394 6.51172 13.8864 6.51172 23.5729C6.51172 33.2594 14.3642 41.1118 24.0507 41.1118Z" fill="white"/>
<path d="M35.4537 13.8547C34.8184 14.0269 34.1625 13.6498 33.9904 13.0145C33.8182 12.3792 34.1953 11.7233 34.8307 11.5512C35.466 11.379 36.1218 11.7561 36.2939 12.3914C36.4661 13.0268 36.089 13.6826 35.4537 13.8547Z" fill="white"/>
<path d="M13.4351 35.2178C12.7998 35.3899 12.144 35.0128 11.9718 34.3775C11.7997 33.7422 12.1768 33.0864 12.8121 32.9142C13.4474 32.7421 14.1032 33.1192 14.2754 33.7545C14.4475 34.3898 14.0745 35.0456 13.4351 35.2178Z" fill="white"/>
<path d="M31.5189 10.3829C31.5189 10.387 31.5189 10.387 31.5148 10.3911C31.4861 10.7026 31.7156 10.9731 32.023 11.0018C32.3345 11.0305 32.6051 10.801 32.6338 10.4935C32.6625 10.182 32.4329 9.91151 32.1255 9.88282C31.982 9.87052 31.8509 9.91561 31.7402 9.99349C29.8261 8.91549 27.6701 8.23509 25.4731 8.03014C20.8947 7.60796 16.3819 9.20241 13.0864 12.4036C8.053 17.2894 6.88483 24.8805 10.1598 31.0287C10.0983 31.1107 10.0491 31.2009 10.0409 31.3116C10.0123 31.6231 10.2418 31.8936 10.5492 31.9223C10.8607 31.951 11.1312 31.7215 11.1599 31.414C11.1886 31.1025 10.9591 30.832 10.6517 30.8033C10.6189 30.7992 10.5902 30.8115 10.5574 30.8156C7.38079 24.8436 8.51617 17.478 13.402 12.7315C16.5991 9.62459 20.9849 8.07523 25.4321 8.48512C27.5717 8.67776 29.6621 9.33768 31.5189 10.3829Z" fill="white"/>
<path d="M37.6715 15.8998C37.7289 15.8219 37.774 15.7317 37.7822 15.6293C37.8108 15.3178 37.5813 15.0472 37.2739 15.0185C36.9665 14.9898 36.6919 15.2194 36.6632 15.5268C36.6345 15.8383 36.864 16.1088 37.1714 16.1375C37.2083 16.1416 37.2452 16.1293 37.2821 16.1252C40.68 22.0931 39.6143 29.7867 34.6588 34.6069C31.4617 37.7138 27.0801 39.2591 22.6369 38.8492C20.3457 38.6361 18.1159 37.8983 16.1567 36.7137C16.1567 36.7055 16.1608 36.7014 16.1649 36.6932C16.1936 36.3817 15.964 36.1112 15.6566 36.0825C15.3451 36.0538 15.0746 36.2833 15.0459 36.5907C15.0172 36.9023 15.2467 37.1728 15.5541 37.2015C15.6894 37.2138 15.8165 37.1687 15.923 37.099C17.9397 38.3205 20.235 39.0828 22.6 39.3001C27.1744 39.7223 31.6872 38.1278 34.9785 34.9307C40.0775 29.967 41.176 22.044 37.6715 15.8998Z" fill="white"/>
<path d="M33.974 18.8059C33.3551 19.0191 32.4944 19.097 31.8426 19.1462C32.15 19.1257 32.5599 18.6051 32.7608 18.4002C33.0682 18.0846 33.2854 17.7157 33.4535 17.3099C33.474 17.2771 33.4658 17.2361 33.4371 17.2074C33.3961 17.1869 33.3592 17.191 33.3223 17.2033C32.5681 17.5189 31.7975 17.7239 30.9901 17.8427C30.9245 17.855 30.8753 17.8304 30.8384 17.7853C30.781 17.7075 30.7236 17.6296 30.6622 17.5681C30.3589 17.2566 30.0227 16.9984 29.6375 16.7975C29.1333 16.5311 28.5677 16.3876 27.9938 16.3671C27.4405 16.3507 26.883 16.4532 26.3707 16.6623C25.8542 16.8713 25.3829 17.1869 24.9935 17.5804C24.5918 17.9903 24.2762 18.4903 24.0835 19.0314C23.8991 19.556 23.8581 20.0889 23.8868 20.6381C23.8909 20.7283 23.8827 20.7406 23.8007 20.7201C20.7635 19.9659 18.3165 18.6133 16.472 16.0515C16.39 15.9409 16.3449 15.9368 16.2588 16.0392C15.2218 17.3099 15.4473 19.5396 16.4761 20.7242C16.6154 20.8841 16.7548 21.0398 16.9106 21.1874C16.8491 21.1956 16.1031 21.0398 15.4637 20.6258C15.3776 20.5603 15.3284 20.5889 15.312 20.6914C15.2874 20.839 15.2874 20.9742 15.2915 21.1341C15.3325 22.5318 16.1646 23.8967 17.4229 24.5238C17.5705 24.6058 17.7385 24.6796 17.9025 24.7206C17.5992 24.7575 17.2876 24.7739 16.4392 24.6222C16.3367 24.5935 16.2875 24.6427 16.3203 24.7452C16.7917 26.5569 18.1279 27.2127 19.1403 27.6103C19.2756 27.6472 19.4149 27.6594 19.5502 27.7045C19.542 27.7168 19.5338 27.7168 19.5256 27.7291C19.128 28.221 17.8984 28.4956 17.3245 28.635C16.2793 28.8891 15.1644 28.9424 14.1069 28.7333C13.9389 28.6924 13.902 28.6924 13.8528 28.7088C13.8036 28.7333 13.8405 28.7784 13.8897 28.8276C14.0905 28.9916 14.2996 29.1391 14.5127 29.2826C15.1562 29.7089 15.8367 30.0614 16.554 30.3401C20.2716 31.7665 24.6492 31.4058 27.793 28.8317C30.2605 26.811 31.3508 23.8024 31.65 20.7119C31.6623 20.593 31.8098 20.5398 31.9 20.4824C32.5271 20.1012 33.4248 19.6544 33.9166 19.1093C34.0273 18.9863 34.4126 18.9043 34.4167 18.8551C34.4167 18.8469 34.4167 18.8387 34.4167 18.8387C34.429 18.7978 34.056 18.7773 33.974 18.8059Z" fill="#007EFF"/>
<path d="M44.9507 30.6927C44.2498 30.0123 44.2334 28.8974 44.9138 28.1965C45.5942 27.4956 46.7091 27.4792 47.41 28.1597C48.1109 28.8401 48.1273 29.9549 47.4469 30.6558C46.7706 31.3527 45.6516 31.3731 44.9507 30.6927Z" fill="white"/>
<path d="M1.167 18.8346C0.466098 18.1542 0.449702 17.0393 1.13011 16.3384C1.81052 15.6375 2.9254 15.6211 3.62631 16.3015C4.32721 16.9819 4.3436 18.0968 3.66319 18.7977C2.98279 19.4945 1.8638 19.5109 1.167 18.8346Z" fill="white"/>
<path d="M46.3939 23.0689C46.3898 23.0689 46.3857 23.0688 46.3816 23.0729C45.9676 23.2697 45.7914 23.7657 45.9881 24.1837C46.1849 24.5977 46.6808 24.774 47.0989 24.5772C47.5129 24.3805 47.6892 23.8845 47.4924 23.4664C47.4022 23.2738 47.2424 23.1385 47.062 23.0648C46.9883 19.8144 46.2259 16.564 44.82 13.6128C41.8975 7.47686 36.4624 2.93944 29.9084 1.16874C19.8949 -1.5365 9.36498 2.7099 4.02009 11.5142C3.86843 11.4978 3.71677 11.506 3.56921 11.5757C3.15523 11.7724 2.97898 12.2684 3.17573 12.6865C3.37247 13.1005 3.86843 13.2767 4.28651 13.08C4.7005 12.8832 4.87675 12.3873 4.68 11.9692C4.65951 11.9241 4.62262 11.8954 4.59393 11.8544C9.78306 3.30833 20.0097 -0.815101 29.7362 1.81226C36.1017 3.53377 41.381 7.93593 44.2215 13.8997C45.5823 16.7607 46.3242 19.9168 46.3939 23.0689Z" fill="white"/>
<path d="M44.0327 35.0538C44.1762 35.0661 44.3237 35.0579 44.4631 34.9882C44.8771 34.7915 45.0533 34.2955 44.8566 33.8774C44.6598 33.4635 44.1639 33.2872 43.7458 33.484C43.3318 33.6807 43.1555 34.1767 43.3523 34.5947C43.3769 34.648 43.4179 34.6849 43.4507 34.7259C38.4296 43.5548 27.8423 48.0144 17.9764 45.346C11.615 43.6286 6.33565 39.2264 3.49925 33.2667C2.03596 30.1926 1.29407 26.8028 1.31866 23.4172C1.33096 23.4131 1.33916 23.4131 1.35145 23.409C1.76544 23.2123 1.94169 22.7163 1.74494 22.2982C1.5482 21.8842 1.05224 21.708 0.634157 21.9047C0.220174 22.1015 0.0439233 22.5974 0.240668 23.0155C0.326743 23.2 0.478401 23.327 0.650552 23.4049C0.625959 26.8971 1.38834 30.3893 2.89672 33.5577C5.81509 39.6896 11.2502 44.2229 17.8001 45.9936C27.9611 48.7399 38.8641 44.1491 44.0327 35.0538Z" fill="white"/>
</svg>
