<svg width="871" height="644" viewBox="0 0 871 644" fill="none" xmlns="http://www.w3.org/2000/svg">
<g opacity="0.36">
<path opacity="0.36" d="M6.52417 0C2.82051 0 0.169033 45.8619 0.0848593 48.9797C-0.883141 81.2115 6.52417 107.376 17.5089 136.869C37.0793 189.367 84.7638 228.614 137.057 245.952C170.705 257.096 224.03 252.04 258.162 261.541C313.212 276.878 371.902 323.603 398.943 381.578C434.927 458.703 472.532 540.357 542.144 589.231C602.202 631.386 649.466 647.796 725.412 642.298C806.324 636.442 871.98 601.05 871.98 601.05V0.0210665C872.001 0 7.66051 0 6.52417 0Z" fill="#ABDBFF"/>
</g>
<path d="M872 0V530.074C560.139 746.779 428.991 454.828 362.68 339.631C259.491 160.37 224.169 252.085 132.297 198.025C59.6967 155.274 35.1668 76.4469 43.5819 0H872Z" fill="#4588FF"/>
</svg>
