<svg width="272" height="79" viewBox="0 0 272 79" fill="none" xmlns="http://www.w3.org/2000/svg">
<path d="M40.1034 79C61.8884 79 79.5487 61.3152 79.5487 39.5C79.5487 17.6848 61.8884 0 40.1034 0C18.3184 0 0.658203 17.6848 0.658203 39.5C0.658203 61.3152 18.3184 79 40.1034 79Z" fill="white"/>
<path d="M40.1034 77.5C61.0611 77.5 78.0507 60.4868 78.0507 39.5C78.0507 18.5132 61.0611 1.5 40.1034 1.5C19.1457 1.5 2.15613 18.5132 2.15613 39.5C2.15613 60.4868 19.1457 77.5 40.1034 77.5Z" fill="white" stroke="#007EFF" stroke-width="3"/>
<path d="M74.5756 51.4299L67.2559 63.8811L9.22833 63.9031V55.738L32.9954 27.5972H9.83759V17.177H50.0818V25.3411L26.3147 53.4819L74.5756 51.4299Z" fill="#0027FF"/>
<path d="M74.5378 51.4761L66.6486 63.845L10.184 61.9001V53.7361L33.9511 25.595H10.7933V15.176H51.0375V23.3411L27.2704 51.4822L74.5378 51.4761Z" fill="#007EFF"/>
<path d="M65.9301 12.729L35.9159 48.507H78.1483" stroke="#007EFF" stroke-width="3"/>
<path d="M105.699 31.75C106.999 31.75 108.283 32.0667 109.549 32.7L108.249 37.7C106.983 37 105.699 36.65 104.399 36.65C103.299 36.65 102.349 37.0333 101.549 37.8C100.783 38.5333 100.399 39.5833 100.399 40.95L100.349 48.25H103.449V52H91.2494V48.25H94.2994V35.85H91.2494V32.1H100.349V35.9C101.583 33.1333 103.366 31.75 105.699 31.75ZM131.767 43.1H117.017C117.283 44.6667 117.95 45.8833 119.017 46.75C120.117 47.5833 121.483 48 123.117 48C125.583 48 127.8 47.15 129.767 45.45L131.517 49.1C130.417 50.1667 129.1 51.0167 127.567 51.65C126.033 52.25 124.35 52.55 122.517 52.55C119.117 52.55 116.367 51.6167 114.267 49.75C112.2 47.85 111.167 45.2833 111.167 42.05C111.167 40.0167 111.617 38.2167 112.517 36.65C113.45 35.05 114.733 33.8167 116.367 32.95C118 32.05 119.833 31.6 121.867 31.6C124.933 31.6 127.35 32.55 129.117 34.45C130.883 36.3167 131.767 38.7833 131.767 41.85V43.1ZM126.067 40.25C126.067 38.7833 125.683 37.65 124.917 36.85C124.15 36.05 123.1 35.65 121.767 35.65C120.467 35.65 119.4 36.05 118.567 36.85C117.733 37.65 117.217 38.7833 117.017 40.25H126.067ZM154.517 48.8C152.117 51.2667 149 52.5 145.167 52.5C143 52.5 141.067 52.05 139.367 51.15C137.7 50.25 136.4 49 135.467 47.4C134.534 45.7667 134.067 43.9167 134.067 41.85C134.067 39.85 134.5 38.0667 135.367 36.5C136.267 34.9333 137.467 33.7333 138.967 32.9C140.5 32.0333 142.217 31.6 144.117 31.6C146.684 31.6 148.634 32.35 149.967 33.85V32.05H154.217V39.9H150.317C150.117 38.6 149.6 37.5833 148.767 36.85C147.934 36.1167 146.817 35.75 145.417 35.75C143.75 35.75 142.4 36.2833 141.367 37.35C140.367 38.4167 139.867 39.8333 139.867 41.6C139.867 43.5 140.434 45.0333 141.567 46.2C142.7 47.3667 144.2 47.95 146.067 47.95C147.4 47.95 148.584 47.7167 149.617 47.25C150.684 46.75 151.684 46.0667 152.617 45.2L154.517 48.8ZM171.764 31.75C173.064 31.75 174.347 32.0667 175.614 32.7L174.314 37.7C173.047 37 171.764 36.65 170.464 36.65C169.364 36.65 168.414 37.0333 167.614 37.8C166.847 38.5333 166.464 39.5833 166.464 40.95L166.414 48.25H169.514V52H157.314V48.25H160.364V35.85H157.314V32.1H166.414V35.9C167.647 33.1333 169.431 31.75 171.764 31.75ZM202.031 48.25V52H193.431L193.281 49.9C190.981 51.6333 188.631 52.5 186.231 52.5C184.031 52.5 182.348 51.8667 181.181 50.6C180.048 49.3 179.481 47.65 179.481 45.65V35.85H176.731V32.1H185.581V44.8C185.581 45.8667 185.831 46.7167 186.331 47.35C186.864 47.95 187.631 48.25 188.631 48.25C190.131 48.25 191.598 47.7167 193.031 46.65V35.85H190.331V32.1H199.031V48.25H202.031ZM209.096 28.2C207.996 28.2 207.096 27.8667 206.396 27.2C205.696 26.5333 205.346 25.6833 205.346 24.65C205.346 23.5833 205.696 22.7167 206.396 22.05C207.096 21.3833 207.996 21.05 209.096 21.05C210.196 21.05 211.079 21.3833 211.746 22.05C212.446 22.7167 212.796 23.5833 212.796 24.65C212.829 25.6833 212.496 26.5333 211.796 27.2C211.096 27.8667 210.196 28.2 209.096 28.2ZM203.546 48.25H206.596V35.85H203.596V32.1H212.646V48.25H215.546V52H203.546V48.25ZM226.215 52C222.115 52 220.065 50.0333 220.065 46.1V35.85H217.265V32.1H220.015V25.55L226.115 24.25V32.1H230.865V35.85H226.115V45.2C226.115 46.2667 226.299 47.0333 226.665 47.5C227.032 47.9333 227.665 48.15 228.565 48.15H231.115V52H226.215ZM233.333 48.25H236.283V26.6H233.383V22.9H242.283V48.25H245.033V52H233.333V48.25ZM250.46 55.75H252.46C253.727 55.75 254.66 55.5667 255.26 55.2C255.893 54.8333 256.46 54.05 256.96 52.85L257.86 50.7H256.06L248.66 35.85H246.01V32.1H257.41V35.85H254.86L259.61 46.4L264.01 35.85H261.21V32.1H271.81V35.85H269.41L261.46 53.3C260.593 55.2 259.86 56.6 259.26 57.5C258.66 58.4 257.86 59.0833 256.86 59.55C255.893 60.0167 254.56 60.25 252.86 60.25H250.46V55.75Z" fill="white"/>
</svg>
