<svg width="302" height="48" viewBox="0 0 302 48" fill="none" xmlns="http://www.w3.org/2000/svg">
<path d="M97.3837 39H91.9636L83.5497 30.7085H71.2615V26.6234H87.3653C88.2002 26.6234 88.9829 26.4616 89.7134 26.1381C90.4439 25.801 91.0766 25.3494 91.6114 24.7831C92.1593 24.2169 92.5898 23.5563 92.9028 22.8013C93.2159 22.0328 93.3724 21.2171 93.3724 20.3543C93.3724 19.4914 93.2159 18.6825 92.9028 17.9275C92.5898 17.1725 92.1593 16.5186 91.6114 15.9658C91.0766 15.3996 90.4439 14.9547 89.7134 14.6311C88.9829 14.3075 88.2002 14.1457 87.3653 14.1457H69.0113V39H65V10H87.3653C88.7481 10 90.046 10.2764 91.2592 10.8291C92.4723 11.3684 93.529 12.1099 94.4291 13.0537C95.3422 13.984 96.0597 15.076 96.5815 16.3298C97.1163 17.5837 97.3837 18.9252 97.3837 20.3543C97.3837 21.6485 97.1685 22.8754 96.738 24.0349C96.3075 25.1808 95.714 26.2122 94.9574 27.129C94.2008 28.0323 93.3072 28.7873 92.2767 29.394C91.2592 29.9872 90.1569 30.3849 88.9698 30.5872L97.3837 39Z" fill="#007EFF"/>
<path d="M125.052 39H102.041V16.1478H125.052V20.3138H106.091V34.8138H125.052V39ZM122.488 29.5558H107.989V25.3696H122.488V29.5558Z" fill="#007EFF"/>
<path d="M152.524 39H138.299C136.746 39 135.338 38.7034 134.072 38.1102C132.807 37.517 131.724 36.708 130.824 35.6834C129.924 34.6453 129.226 33.4319 128.73 32.0432C128.248 30.6411 128.006 29.1378 128.006 27.5335C128.006 25.9426 128.248 24.4596 128.73 23.0844C129.226 21.6957 129.924 20.4891 130.824 19.4644C131.724 18.4398 132.807 17.6309 134.072 17.0377C135.338 16.4444 136.746 16.1478 138.299 16.1478H152.524V20.3138H138.299C137.333 20.3138 136.459 20.5026 135.677 20.8801C134.907 21.2576 134.255 21.7699 133.72 22.417C133.185 23.0642 132.774 23.8259 132.487 24.7022C132.2 25.5786 132.057 26.5223 132.057 27.5335C132.057 28.5581 132.2 29.5153 132.487 30.4052C132.774 31.2815 133.185 32.05 133.72 32.7106C134.255 33.3577 134.907 33.8701 135.677 34.2476C136.459 34.6251 137.333 34.8138 138.299 34.8138H152.524V39Z" fill="#007EFF"/>
<path d="M182.932 39H177.472L171.211 32.8319H163.09V28.7266H174.185C174.746 28.7266 175.274 28.612 175.77 28.3828C176.266 28.1537 176.696 27.8503 177.061 27.4728C177.427 27.0818 177.714 26.6302 177.922 26.1179C178.131 25.6055 178.235 25.0662 178.235 24.5C178.235 23.9203 178.131 23.381 177.922 22.8821C177.714 22.3698 177.427 21.9249 177.061 21.5474C176.696 21.1699 176.266 20.8733 175.77 20.6576C175.274 20.4284 174.746 20.3138 174.185 20.3138H160.997V39H156.985V16.2287H174.185C175.294 16.2287 176.337 16.4512 177.316 16.8961C178.294 17.3275 179.142 17.9207 179.859 18.6757C180.59 19.4172 181.164 20.2936 181.581 21.3047C181.999 22.3024 182.208 23.3675 182.208 24.5C182.208 25.4303 182.064 26.3268 181.777 27.1897C181.49 28.0391 181.086 28.821 180.564 29.5356C180.055 30.2366 179.449 30.8433 178.744 31.3556C178.04 31.868 177.27 32.2455 176.435 32.4881L182.932 39Z" fill="#007EFF"/>
<path d="M210.776 16.2287V27.6144C210.776 29.1918 210.489 30.6748 209.915 32.0635C209.341 33.4386 208.551 34.6453 207.547 35.6834C206.556 36.708 205.395 37.517 204.064 38.1102C202.734 38.7034 201.312 39 199.798 39H197.587C196.074 39 194.652 38.7034 193.322 38.1102C191.991 37.5035 190.824 36.6878 189.819 35.6632C188.828 34.6251 188.045 33.4184 187.471 32.0432C186.897 30.6546 186.61 29.1783 186.61 27.6144V16.2287H190.621V27.6144C190.621 28.612 190.804 29.5558 191.169 30.4456C191.535 31.3219 192.03 32.0904 192.656 32.751C193.296 33.3982 194.033 33.9105 194.868 34.288C195.715 34.6655 196.622 34.8543 197.587 34.8543H199.798C200.764 34.8543 201.67 34.6655 202.518 34.288C203.366 33.9105 204.103 33.3982 204.729 32.751C205.356 32.0904 205.851 31.3219 206.216 30.4456C206.582 29.5558 206.764 28.612 206.764 27.6144V16.2287H210.776Z" fill="#007EFF"/>
<path d="M220.168 39H216.196V16.2287H220.168V39Z" fill="#007EFF"/>
<path d="M238.131 39H234.119V20.3138H223.514V16.2287H248.716V20.3138H238.131V39Z" fill="#007EFF"/>
<path d="M273.136 39H252.043V16.2287H256.054V34.8543H273.136V39Z" fill="#007EFF"/>
<path d="M301 32.2859C301 33.2162 300.785 34.0925 300.354 34.9149C299.937 35.7239 299.363 36.4317 298.632 37.0384C297.915 37.6451 297.067 38.1237 296.089 38.4742C295.11 38.8247 294.073 39 292.977 39H275.739V34.8543H292.977C293.525 34.8543 294.041 34.7936 294.523 34.6722C295.019 34.5374 295.449 34.3554 295.815 34.1262C296.18 33.8835 296.467 33.6072 296.676 33.2971C296.884 32.987 296.989 32.6499 296.989 32.2859V31.2545H283.722C282.626 31.2545 281.589 31.0388 280.611 30.6074C279.646 30.1625 278.798 29.5693 278.067 28.8278C277.35 28.0728 276.782 27.1964 276.365 26.1987C275.947 25.1876 275.739 24.109 275.739 22.963V16.2287H279.711V22.963C279.711 23.5428 279.815 24.0888 280.024 24.6011C280.233 25.1 280.52 25.5381 280.885 25.9156C281.25 26.2796 281.674 26.5695 282.157 26.7852C282.652 27.0009 283.174 27.1088 283.722 27.1088H296.989V16.2287H301V32.2859Z" fill="#007EFF"/>
<path fill-rule="evenodd" clip-rule="evenodd" d="M99.127 39H91.4787L83.0485 31.1402H70.2736V25.7579H87.1806C87.9158 25.7579 88.5942 25.624 89.2237 25.3611C89.8684 25.0789 90.4189 24.7052 90.8824 24.241L90.8889 24.2345C91.366 23.768 91.7422 23.2234 92.0181 22.5946C92.2899 21.9627 92.4272 21.2902 92.4272 20.5701C92.4272 19.8492 92.2896 19.1841 92.0191 18.5671C91.7438 17.939 91.3692 17.4026 90.8956 16.9505L90.8889 16.9441L90.8824 16.9376C90.42 16.4745 89.8714 16.1081 89.2291 15.8389C88.5981 15.5745 87.9179 15.4399 87.1806 15.4399H69.5633V39H64V10H87.1806C88.6674 10 90.0733 10.2816 91.3903 10.8487C92.6916 11.3965 93.8318 12.1523 94.8041 13.1159C95.7895 14.0667 96.5624 15.1814 97.1225 16.4538C97.7026 17.7415 97.9905 19.1163 97.9905 20.5701C97.9905 21.8855 97.7589 23.1405 97.2923 24.3296L97.2912 24.3323C96.8292 25.496 96.1903 26.5473 95.3748 27.4821L95.3712 27.4863C94.5543 28.409 93.5903 29.1788 92.4837 29.7952L92.4809 29.7968C91.8021 30.1712 91.0891 30.469 90.343 30.6905L99.127 39ZM88.7882 30.2702C89.0981 30.2203 89.4022 30.1578 89.7005 30.0827C90.5473 29.8695 91.3476 29.555 92.1015 29.1392C93.134 28.5641 94.0293 27.8484 94.7874 26.9921C95.5454 26.1231 96.1401 25.1454 96.5714 24.0591C97.0027 22.96 97.2184 21.797 97.2184 20.5701C97.2184 19.2154 96.9505 17.9438 96.4146 16.7553C95.8918 15.5667 95.1729 14.5315 94.258 13.6497C93.3562 12.7551 92.2975 12.0522 91.082 11.541C89.8665 11.017 88.5661 10.755 87.1806 10.755H64.7721V38.245H68.7912V14.6849H87.1806C88.0171 14.6849 88.8013 14.8382 89.5332 15.145C90.2652 15.4517 90.899 15.8734 91.4349 16.4102C91.9839 16.9342 92.4152 17.554 92.7288 18.2697C93.0425 18.9854 93.1994 19.7522 93.1994 20.5701C93.1994 21.388 93.0425 22.1612 92.7288 22.8897C92.4152 23.6054 91.9839 24.2316 91.4349 24.7684C90.899 25.3051 90.2652 25.7333 89.5332 26.0528C88.8013 26.3595 88.0171 26.5129 87.1806 26.5129H71.0457V30.3852H83.3577L91.7878 38.245H97.2184L88.7882 30.2702ZM125.712 39H101.112V15.8277H125.712V21.2868H106.715V33.5218H125.712V39ZM105.943 34.2768V20.5318H124.94V16.5827H101.884V38.245H124.94V34.2768H105.943ZM123.144 30.0475H107.072V24.5693H123.144V30.0475ZM153.237 39H138.212C136.56 39 135.038 38.7008 133.659 38.0891C132.299 37.4859 131.127 36.659 130.152 35.6086L130.148 35.605C129.178 34.5457 128.429 33.3119 127.901 31.9118L127.898 31.9036C127.383 30.4871 127.128 28.9758 127.128 27.3755C127.128 25.7874 127.383 24.2937 127.9 22.9006L127.901 22.8968C128.43 21.4959 129.179 20.267 130.152 19.2191C131.127 18.1687 132.299 17.3419 133.659 16.7386C135.038 16.1269 136.56 15.8277 138.212 15.8277H153.237V21.2868H138.212C137.346 21.2868 136.584 21.4464 135.914 21.7517C135.239 22.0655 134.674 22.4866 134.212 23.0158C133.745 23.5501 133.38 24.1861 133.121 24.9338C132.863 25.6796 132.731 26.4917 132.731 27.3755C132.731 28.2728 132.863 29.0985 133.122 29.858C133.381 30.6044 133.746 31.2474 134.214 31.7956C134.676 32.3235 135.24 32.7438 135.914 33.057C136.584 33.3622 137.346 33.5218 138.212 33.5218H153.237V39ZM135.585 33.74C134.814 33.3822 134.161 32.8965 133.625 32.2831C133.089 31.6569 132.677 30.9284 132.39 30.0977C132.102 29.2542 131.958 28.3468 131.958 27.3755C131.958 26.417 132.102 25.5224 132.39 24.6917C132.677 23.861 133.089 23.1389 133.625 22.5255C134.161 21.912 134.814 21.4264 135.585 21.0685C136.37 20.7107 137.245 20.5318 138.212 20.5318H152.465V16.5827H138.212C136.657 16.5827 135.246 16.8639 133.978 17.4262C132.71 17.9885 131.625 18.7553 130.723 19.7266C129.821 20.6979 129.122 21.8417 128.626 23.1581C128.142 24.4617 127.9 25.8675 127.9 27.3755C127.9 28.8964 128.142 30.3213 128.626 31.6505C129.122 32.9668 129.821 34.117 130.723 35.1011C131.625 36.0724 132.71 36.8392 133.978 37.4015C135.246 37.9638 136.657 38.245 138.212 38.245H152.465V34.2768H138.212C137.245 34.2768 136.37 34.0978 135.585 33.74ZM184.837 39H177.153L170.879 33.1531H162.28V27.7516H174.168C174.625 27.7516 175.046 27.6639 175.441 27.4915C175.854 27.3109 176.204 27.0762 176.499 26.7889C176.795 26.4879 177.029 26.1403 177.201 25.7406C177.369 25.3495 177.454 24.9381 177.454 24.5C177.454 24.0466 177.368 23.6381 177.204 23.2661L177.201 23.2594C177.029 22.86 176.796 22.521 176.504 22.235C176.211 21.9491 175.865 21.7217 175.456 21.5535L175.448 21.5503L175.441 21.5469C175.046 21.3744 174.625 21.2868 174.168 21.2868H161.726V39H156.163V15.9044H174.168C175.38 15.9044 176.531 16.1349 177.612 16.5992C178.677 17.0444 179.609 17.6596 180.399 18.4452C181.203 19.2185 181.833 20.1304 182.288 21.1733C182.749 22.2171 182.978 23.3285 182.978 24.5C182.978 25.4637 182.821 26.3966 182.505 27.2951L182.504 27.2985C182.19 28.1766 181.748 28.9867 181.177 29.7264C180.618 30.4553 179.951 31.0856 179.18 31.6161C178.756 31.9082 178.31 32.1585 177.842 32.3667L184.837 39ZM176.423 32.0722C176.703 31.9951 176.976 31.9035 177.242 31.7976C177.769 31.5878 178.267 31.3215 178.736 30.9987C179.442 30.513 180.049 29.9379 180.559 29.2734C181.082 28.596 181.487 27.8548 181.775 27.0496C182.062 26.2317 182.206 25.3818 182.206 24.5C182.206 23.4265 181.997 22.4168 181.579 21.4711C181.16 20.5126 180.585 19.6819 179.853 18.979C179.135 18.2633 178.285 17.701 177.305 17.292C176.325 16.8703 175.279 16.6594 174.168 16.6594H156.935V38.245H160.954V20.5318H174.168C174.73 20.5318 175.259 20.6404 175.756 20.8577C176.253 21.0622 176.684 21.3433 177.05 21.7012C177.416 22.059 177.703 22.4807 177.913 22.9664C178.122 23.4393 178.226 23.9505 178.226 24.5C178.226 25.0368 178.122 25.548 177.913 26.0336C177.703 26.5193 177.416 26.9474 177.05 27.318C176.684 27.6759 176.253 27.9634 175.756 28.1807C175.259 28.3979 174.73 28.5066 174.168 28.5066H163.052V32.3981H171.188L177.462 38.245H182.931L176.423 32.0722ZM211.601 15.9044V27.4522C211.601 29.0448 211.295 30.552 210.677 31.9662L210.676 31.9687C210.063 33.3581 209.217 34.582 208.14 35.635C207.076 36.676 205.83 37.4959 204.411 38.0948C202.977 38.6996 201.447 39 199.831 39H197.616C195.999 39 194.47 38.6996 193.036 38.0948L193.03 38.0923C191.614 37.4813 190.365 36.6569 189.29 35.6193L189.283 35.6123C188.22 34.5597 187.383 33.3369 186.771 31.9495L186.77 31.9471C186.152 30.5336 185.845 29.0329 185.845 27.4522V15.9044H191.408V27.4522C191.408 28.2991 191.571 29.0924 191.895 29.839C192.223 30.5838 192.665 31.2314 193.221 31.7874C193.791 32.3325 194.449 32.765 195.198 33.0857C195.946 33.4005 196.749 33.5601 197.616 33.5601H199.831C200.698 33.5601 201.502 33.4003 202.251 33.0849C203.013 32.7638 203.668 32.3319 204.223 31.7901C204.78 31.2335 205.223 30.5851 205.551 29.839C205.875 29.0924 206.038 28.2991 206.038 27.4522V15.9044H211.601ZM206.261 30.136C205.895 30.9667 205.399 31.6952 204.771 32.3214C204.144 32.9349 203.406 33.4205 202.556 33.7783C201.706 34.1362 200.798 34.3151 199.831 34.3151H197.616C196.648 34.3151 195.74 34.1362 194.89 33.7783C194.054 33.4205 193.315 32.9349 192.675 32.3214C192.048 31.6952 191.551 30.9667 191.185 30.136C190.819 29.2925 190.636 28.3979 190.636 27.4522V16.6594H186.617V27.4522C186.617 28.9347 186.905 30.3341 187.48 31.6505C188.055 32.954 188.839 34.0978 189.832 35.0819C190.839 36.0532 192.008 36.8264 193.342 37.4015C194.675 37.9638 196.099 38.245 197.616 38.245H199.831C201.347 38.245 202.772 37.9638 204.105 37.4015C205.438 36.8392 206.601 36.0724 207.594 35.1011C208.601 34.117 209.392 32.9732 209.967 31.6696C210.542 30.3533 210.829 28.9475 210.829 27.4522V16.6594H206.81V27.4522C206.81 28.3979 206.627 29.2925 206.261 30.136ZM221.012 39H215.488V15.9044H221.012V39ZM239.009 39H233.446V21.2868H222.82V15.9044H249.615V21.2868H239.009V39ZM234.218 20.5318V38.245H238.237V20.5318H248.843V16.6594H223.592V20.5318H234.218ZM274.083 39H251.404V15.9044H256.967V33.5601H274.083V39ZM256.195 34.3151V16.6594H252.176V38.245H273.31V34.3151H256.195ZM275.146 39V33.5601H293.19C293.681 33.5601 294.133 33.509 294.549 33.4106C294.98 33.2991 295.335 33.1545 295.623 32.9847C295.915 32.7998 296.121 32.605 296.261 32.4079C296.384 32.2354 296.437 32.0653 296.437 31.8805V31.6578H283.917C282.718 31.6578 281.575 31.434 280.496 30.9838L280.491 30.9814L280.485 30.9789C279.436 30.5217 278.51 29.9091 277.71 29.1411L277.705 29.1363L277.7 29.1314C276.913 28.3477 276.291 27.4386 275.836 26.41L275.835 26.4066C275.374 25.3504 275.146 24.2268 275.146 23.0431V15.9044H280.67V23.0431C280.67 23.4952 280.755 23.9118 280.922 24.2998C281.092 24.6832 281.322 25.0159 281.615 25.3032C281.91 25.5801 282.253 25.8031 282.651 25.9718C283.05 26.1355 283.47 26.2179 283.917 26.2179H296.437V15.9044H302V31.8805C302 32.8878 301.752 33.8413 301.261 34.7301C300.791 35.5903 300.148 36.338 299.341 36.9725C298.545 37.6087 297.615 38.1024 296.56 38.4599C295.494 38.8214 294.369 39 293.19 39H275.146ZM298.856 36.3855C299.588 35.8104 300.163 35.1394 300.581 34.3726C301.012 33.593 301.228 32.7623 301.228 31.8805V16.6594H297.209V26.9729H283.917C283.368 26.9729 282.845 26.8707 282.348 26.6662C281.865 26.4617 281.44 26.187 281.074 25.8419C280.708 25.4841 280.42 25.0687 280.211 24.5959C280.002 24.1102 279.898 23.5926 279.898 23.0431V16.6594H275.918V23.0431C275.918 24.1294 276.127 25.1518 276.545 26.1103C276.963 27.056 277.532 27.8867 278.251 28.6024C278.983 29.3053 279.832 29.8676 280.799 30.2894C281.78 30.6983 282.819 30.9028 283.917 30.9028H297.209V31.8805C297.209 32.2256 297.104 32.5451 296.895 32.839C296.686 33.133 296.399 33.3949 296.033 33.625C295.667 33.8422 295.235 34.0148 294.739 34.1426C294.255 34.2576 293.739 34.3151 293.19 34.3151H275.918V38.245H293.19C294.288 38.245 295.327 38.0789 296.307 37.7466C297.287 37.4143 298.137 36.9606 298.856 36.3855ZM122.372 29.2925V25.3243H107.844V29.2925H122.372ZM220.24 38.245V16.6594H216.26V38.245H220.24Z" fill="#007EFF"/>
<path d="M9.53309 10.3064H20C19.3313 7.2547 18.9687 4.0869 18.9687 0.828995C18.9687 0.550661 18.9843 0.278334 18.9902 0H12.0265H0V12.3448C0 12.3488 0 12.3508 0 12.3528V13.2339C3.04513 14.183 6.23843 14.7837 9.53309 15V10.3064Z" fill="#4DA5FF"/>
<path d="M23 31H32C30.2328 29.4642 28.6157 27.7935 27.1684 26L23 31Z" fill="#3398FF"/>
<path d="M14 28.3874C9.93289 25.498 5.16011 23.5949 0 23V36.4269C0 36.4308 0 36.4328 0 36.4368C0.00383509 40.3202 1.77373 43.7708 4.51774 46C5.5302 38.9802 9.00288 32.7925 14 28.3874Z" fill="#007EFF"/>
<path d="M8.82247 37.9463L15.455 28.8206C15.0955 28.5392 14.7303 28.2657 14.3575 28C9.42611 32.3548 5.99914 38.4718 5 45.4094C6.98693 47.0271 9.48856 48 12.2154 48H27C26.3377 44.3915 25.0793 41.0019 23.3346 37.9463H8.82247Z" fill="#4DA5FF"/>
<path d="M38.5221 10.1602L30 21.5744C30.8743 21.4908 31.7603 21.446 32.6559 21.446C38.3147 21.446 43.5819 23.1236 48 26V12.1492C48 7.8735 45.7667 4.1291 42.411 2C39.2491 5.28122 35.5561 8.04476 31.4772 10.1583H38.5221V10.1602Z" fill="#3398FF"/>
<path d="M21.9371 17.1362H9.40988V14.7103C6.15779 14.5009 3.00577 13.9192 0 13V22.8994C5.17832 23.4831 9.96793 25.3524 14.0494 28.1856C14.4285 28.4493 14.7999 28.7208 15.1655 29L17.8018 25.461L22.7069 18.8737L24 17.1362H21.9371Z" fill="#3398FF"/>
<path d="M20.0504 10H31.7798C35.9655 7.89003 39.7553 5.13114 43 1.85545C41.1081 0.687779 38.87 0 36.4629 0H19.0219C19.0179 0.268117 19 0.534292 19 0.804352C19 3.96542 19.37 7.03905 20.0504 10Z" fill="#007EFF"/>
<path d="M30.0885 21.1305L27 25.2836C28.4757 27.334 30.1243 29.2442 31.9261 31H56L48.5541 27.33V25.6904C44.0217 22.726 38.6183 21.0002 32.8131 21.0002C31.8943 20.9962 30.9855 21.0443 30.0885 21.1305Z" fill="#4DA5FF"/>
<path d="M42.0557 38.0019H24C25.8017 41.0425 27.1031 44.4134 27.7851 48H36.6292H48.6839V41.4525L56 38H42.0557V38.0019Z" fill="#007EFF"/>
</svg>
