<svg width="235" height="68" viewBox="0 0 235 68" fill="none" xmlns="http://www.w3.org/2000/svg">
<path d="M86.1133 29.5762C85.2682 29.4616 84.5234 29.4043 83.8789 29.4043C81.5299 29.4043 79.9902 30.1992 79.2598 31.7891V47H73.0508V23.7539H78.916L79.0879 26.5254C80.334 24.3913 82.0599 23.3242 84.2656 23.3242C84.9531 23.3242 85.5977 23.4173 86.1992 23.6035L86.1133 29.5762ZM99.3906 47.4297C95.9818 47.4297 93.2031 46.3841 91.0547 44.293C88.9206 42.2018 87.8535 39.416 87.8535 35.9355V35.334C87.8535 32.9993 88.3047 30.9154 89.207 29.082C90.1094 27.2344 91.3841 25.8164 93.0312 24.8281C94.6927 23.8255 96.5833 23.3242 98.7031 23.3242C101.883 23.3242 104.382 24.3268 106.201 26.332C108.035 28.3372 108.951 31.1803 108.951 34.8613V37.3965H94.1484C94.349 38.9147 94.9505 40.1322 95.9531 41.0488C96.9701 41.9655 98.252 42.4238 99.7988 42.4238C102.191 42.4238 104.06 41.5573 105.406 39.8242L108.457 43.2402C107.526 44.5579 106.266 45.5892 104.676 46.334C103.086 47.0645 101.324 47.4297 99.3906 47.4297ZM98.6816 28.3516C97.4499 28.3516 96.4473 28.7669 95.6738 29.5977C94.9147 30.4284 94.4277 31.6172 94.2129 33.1641H102.85V32.6699C102.821 31.2949 102.449 30.235 101.732 29.4902C101.016 28.7311 99.9993 28.3516 98.6816 28.3516ZM122.164 42.4238C123.31 42.4238 124.241 42.1087 124.957 41.4785C125.673 40.8483 126.046 40.0104 126.074 38.9648H131.896C131.882 40.5404 131.452 41.987 130.607 43.3047C129.762 44.6081 128.602 45.625 127.127 46.3555C125.666 47.0716 124.048 47.4297 122.271 47.4297C118.949 47.4297 116.327 46.377 114.408 44.2715C112.489 42.1517 111.529 39.2298 111.529 35.5059V35.0977C111.529 31.5169 112.482 28.6595 114.387 26.5254C116.292 24.3913 118.906 23.3242 122.229 23.3242C125.136 23.3242 127.464 24.1549 129.211 25.8164C130.973 27.4635 131.868 29.6621 131.896 32.4121H126.074C126.046 31.209 125.673 30.235 124.957 29.4902C124.241 28.7311 123.296 28.3516 122.121 28.3516C120.674 28.3516 119.579 28.8815 118.834 29.9414C118.104 30.987 117.738 32.6914 117.738 35.0547V35.6992C117.738 38.0911 118.104 39.8099 118.834 40.8555C119.564 41.901 120.674 42.4238 122.164 42.4238ZM148.504 29.5762C147.659 29.4616 146.914 29.4043 146.27 29.4043C143.921 29.4043 142.381 30.1992 141.65 31.7891V47H135.441V23.7539H141.307L141.479 26.5254C142.725 24.3913 144.451 23.3242 146.656 23.3242C147.344 23.3242 147.988 23.4173 148.59 23.6035L148.504 29.5762ZM165.434 44.6367C163.901 46.4987 161.781 47.4297 159.074 47.4297C156.582 47.4297 154.677 46.7135 153.359 45.2812C152.056 43.849 151.39 41.7507 151.361 38.9863V23.7539H157.57V38.7715C157.57 41.1921 158.673 42.4023 160.879 42.4023C162.984 42.4023 164.431 41.6719 165.219 40.2109V23.7539H171.449V47H165.605L165.434 44.6367ZM182.686 47H176.455V23.7539H182.686V47ZM176.09 17.7383C176.09 16.8073 176.398 16.041 177.014 15.4395C177.644 14.8379 178.496 14.5371 179.57 14.5371C180.63 14.5371 181.475 14.8379 182.105 15.4395C182.736 16.041 183.051 16.8073 183.051 17.7383C183.051 18.6836 182.729 19.457 182.084 20.0586C181.454 20.6602 180.616 20.9609 179.57 20.9609C178.525 20.9609 177.68 20.6602 177.035 20.0586C176.405 19.457 176.09 18.6836 176.09 17.7383ZM195.254 18.0391V23.7539H199.229V28.3086H195.254V39.9102C195.254 40.7695 195.419 41.3854 195.748 41.7578C196.077 42.1302 196.708 42.3164 197.639 42.3164C198.326 42.3164 198.935 42.2663 199.465 42.166V46.8711C198.247 47.2435 196.994 47.4297 195.705 47.4297C191.351 47.4297 189.131 45.2311 189.045 40.834V28.3086H185.65V23.7539H189.045V18.0391H195.254ZM209.24 47H203.01V14H209.24V47ZM223.055 38.2129L227.352 23.7539H234.012L224.666 50.6094L224.15 51.834C222.761 54.8704 220.469 56.3887 217.275 56.3887C216.373 56.3887 215.456 56.2526 214.525 55.9805V51.2754L215.471 51.2969C216.645 51.2969 217.519 51.1178 218.092 50.7598C218.679 50.4017 219.137 49.8073 219.467 48.9766L220.197 47.0645L212.055 23.7539H218.736L223.055 38.2129Z" fill="#007EFF"/>
<path d="M26.6692 7.07075L7.07107 26.6689C3.16582 30.5742 3.16582 36.9058 7.07107 40.8111L26.6692 60.4092C30.5745 64.3145 36.9061 64.3145 40.8114 60.4092L60.4095 40.8111C64.3148 36.9058 64.3148 30.5742 60.4095 26.6689L40.8114 7.07075C36.9061 3.16551 30.5745 3.16551 26.6692 7.07075Z" fill="white"/>
<path d="M27.7299 8.13141L8.13175 27.7296C4.81229 31.049 4.81229 36.4309 8.13175 39.7504L27.7299 59.3486C31.0494 62.668 36.4313 62.668 39.7507 59.3486L59.3489 39.7504C62.6684 36.4309 62.6684 31.049 59.3489 27.7296L39.7507 8.13141C36.4313 4.81196 31.0494 4.81196 27.7299 8.13141Z" stroke="#007EFF" stroke-width="3"/>
</svg>
