<svg width="39" height="38" viewBox="0 0 39 38" fill="none" xmlns="http://www.w3.org/2000/svg">
<path d="M37.9875 23.9412H1.04437C0.892251 23.9412 0.750999 24.0167 0.664074 24.1246C0.577149 24.2433 0.544553 24.3944 0.588015 24.5454L4.35838 36.9005C4.41271 37.0947 4.6083 37.235 4.81474 37.235H34.228C34.4345 37.235 34.6192 37.1055 34.6844 36.9005L38.4439 24.5454C38.4873 24.4052 38.4656 24.2433 38.3678 24.1246C38.2809 24.0167 38.1396 23.9412 37.9875 23.9412ZM33.8803 36.2963H5.16245L1.68544 24.8799H37.3573L33.8803 36.2963ZM19.1356 0.53665L4.18454 22.2687C4.08675 22.4089 4.07588 22.5924 4.15194 22.7542C4.228 22.9053 4.39098 23.0024 4.56483 23.0024H19.5051C19.7659 23.0024 19.9723 22.7974 19.9723 22.5384V0.806411C19.9723 0.601392 19.8419 0.417952 19.6355 0.353209C19.4725 0.299257 19.2443 0.374793 19.1356 0.53665ZM19.0487 22.0744H5.46668L19.0487 2.32787V22.0744ZM21.6021 7.96049C21.4066 8.02524 21.287 8.19788 21.287 8.4029V22.5384C21.287 22.7974 21.4935 23.0024 21.7543 23.0024H32.935C33.1197 23.0024 33.2827 22.9053 33.3588 22.7434C33.4348 22.5816 33.4131 22.3873 33.3044 22.2471L22.1237 8.11156C22.0042 7.96049 21.7869 7.89575 21.6021 7.96049ZM22.2324 9.75171L31.968 22.0636H22.2324V9.75171Z" fill="#1A8BFF"/>
</svg>
