<svg width="46" height="38" viewBox="0 0 46 38" fill="none" xmlns="http://www.w3.org/2000/svg">
<path d="M45.1915 10.831C45.1915 10.8203 45.1915 10.8203 45.1915 10.831C45.2023 10.8203 45.2023 10.8203 45.2023 10.8095C45.2132 10.7987 45.2132 10.7879 45.2241 10.7771C45.2241 10.7663 45.2349 10.7663 45.2349 10.7555C45.2349 10.7447 45.2458 10.7339 45.2458 10.7231C45.2458 10.7123 45.2567 10.7015 45.2567 10.6907C45.2567 10.68 45.2675 10.6692 45.2675 10.6584C45.2675 10.6476 45.2784 10.6368 45.2784 10.626C45.2784 10.6152 45.2784 10.6044 45.2892 10.5936C45.2892 10.5828 45.2893 10.572 45.3001 10.5612C45.3001 10.5504 45.3001 10.5396 45.3001 10.5289C45.3001 10.5181 45.3001 10.5073 45.3001 10.4857C45.3001 10.4749 45.3001 10.4749 45.3001 10.4641V10.4533C45.3001 10.4425 45.3001 10.4317 45.3001 10.4209C45.3001 10.4101 45.3001 10.3993 45.3001 10.3886C45.3001 10.3778 45.3001 10.367 45.3001 10.3562C45.3001 10.3454 45.3001 10.3346 45.2892 10.3238C45.2892 10.313 45.2893 10.3022 45.2784 10.3022C45.2784 10.2914 45.2675 10.2806 45.2675 10.2698C45.2675 10.2591 45.2675 10.2591 45.2567 10.2483C45.2567 10.2375 45.2458 10.2267 45.2458 10.2159C45.2458 10.2051 45.2349 10.1943 45.2349 10.1943C45.2349 10.1835 45.2241 10.1727 45.2241 10.1619C45.2132 10.1511 45.2132 10.1403 45.2023 10.1295C45.2023 10.1187 45.1915 10.108 45.1915 10.108C45.1806 10.0972 45.1806 10.0864 45.1697 10.0756C45.1697 10.0648 45.1589 10.0648 45.1589 10.054C45.148 10.0432 45.1371 10.0324 45.1371 10.0216C45.1263 10.0108 45.1263 10.0108 45.1154 10C45.1045 9.98924 45.0937 9.98924 45.0937 9.97845C45.0828 9.96766 45.0828 9.96766 45.0719 9.95686C45.0611 9.94607 45.0611 9.94607 45.0502 9.93528C45.0393 9.92449 45.0285 9.92449 45.0176 9.91369C45.0176 9.91369 45.0176 9.9137 45.0068 9.9029L39.3889 6.41697C39.3889 6.41697 39.3781 6.41697 39.3781 6.40617C39.3672 6.40617 39.3672 6.39538 39.3563 6.39538C39.3563 6.39538 39.3455 6.39538 39.3455 6.38459C39.3346 6.38459 39.3346 6.3738 39.3237 6.3738C39.3129 6.3738 39.3129 6.363 39.302 6.363C39.302 6.363 39.2911 6.36301 39.2911 6.35221C39.2803 6.35221 39.2694 6.34142 39.2585 6.34142H39.2477H39.2368C39.226 6.34142 39.2151 6.33063 39.2042 6.33063H39.1933H39.1825C39.1716 6.33063 39.1607 6.33063 39.139 6.31984C39.1281 6.31984 39.1173 6.31984 39.1064 6.31984C39.0955 6.31984 39.0847 6.31984 39.0738 6.31984C39.0629 6.31984 39.0521 6.31984 39.0412 6.31984C39.0303 6.31984 39.0195 6.31984 39.0086 6.31984H38.9978C38.9978 6.31984 38.9978 6.31984 38.9869 6.31984H38.976C38.9651 6.31984 38.9543 6.31984 38.9543 6.31984H38.9434H38.9325H38.9217C38.9108 6.31984 38.8999 6.31984 38.8999 6.33063C38.8891 6.33063 38.8782 6.34142 38.8673 6.34142C38.8565 6.34142 38.8456 6.35221 38.8347 6.35221C38.8239 6.35221 38.8239 6.35221 38.813 6.363H38.8021C38.7913 6.363 38.7804 6.3738 38.7696 6.3738C38.7587 6.3738 38.7587 6.38459 38.7478 6.38459L28.6966 11.7052L22.7202 4.45275C22.7202 4.45275 22.7202 4.45276 22.7094 4.44196C22.7094 4.43117 22.6985 4.43117 22.6985 4.43117C22.6876 4.42038 22.6768 4.40959 22.6659 4.39879C22.655 4.388 22.655 4.388 22.6442 4.388C22.6333 4.37721 22.6224 4.36642 22.6116 4.36642C22.6007 4.35563 22.5898 4.35562 22.579 4.34483C22.5681 4.34483 22.5681 4.33404 22.5572 4.33404C22.5464 4.32325 22.5355 4.32325 22.5246 4.31246C22.5138 4.31246 22.5138 4.30166 22.5029 4.30166C22.492 4.30166 22.4812 4.29087 22.4703 4.29087C22.4594 4.29087 22.4486 4.28008 22.4377 4.28008C22.4268 4.28008 22.416 4.26929 22.4051 4.26929C22.3942 4.26929 22.3834 4.2585 22.3725 4.2585C22.3616 4.2585 22.3508 4.25849 22.3399 4.2477C22.329 4.2477 22.3182 4.2477 22.3182 4.23691H22.3073L2.65042 0.750977C2.63955 0.750977 2.63955 0.750977 2.62868 0.750977C2.61782 0.750977 2.60695 0.750977 2.59609 0.750977C2.58522 0.750977 2.57435 0.750977 2.56349 0.750977C2.55262 0.750977 2.54176 0.750977 2.53089 0.750977C2.52002 0.750977 2.50916 0.750977 2.49829 0.750977C2.48743 0.750977 2.47656 0.750977 2.4657 0.750977C2.45483 0.750977 2.44397 0.750977 2.4331 0.750977C2.42223 0.750977 2.41137 0.750977 2.4005 0.750977C2.38964 0.750977 2.37877 0.750975 2.3679 0.761767C2.35704 0.761767 2.34616 0.761765 2.33529 0.772558C2.32442 0.772558 2.31356 0.783352 2.30269 0.783352C2.29183 0.783352 2.28096 0.794143 2.2701 0.794143C2.25923 0.794143 2.24837 0.804938 2.2375 0.804938C2.22663 0.804938 2.21577 0.815728 2.2049 0.815728C2.19404 0.815728 2.18317 0.826523 2.17231 0.826523C2.16144 0.826523 2.15057 0.837312 2.15057 0.848104C2.1397 0.858896 2.12884 0.858897 2.11797 0.869689L2.10711 0.880484C2.10711 0.880484 2.10712 0.880482 2.09625 0.891274C2.08538 0.902067 2.0745 0.91286 2.06364 0.91286C2.05277 0.923652 2.05278 0.923652 2.04192 0.934445C2.03105 0.945237 2.03105 0.95603 2.02018 0.95603C2.00931 0.966822 2.00931 0.966823 1.99844 0.977615C1.98758 0.988408 1.98759 0.9992 1.97672 0.9992C1.96586 1.00999 1.96585 1.02079 1.95499 1.02079C1.94412 1.03158 1.94411 1.04237 1.93325 1.05316C1.92238 1.06395 1.92239 1.07474 1.92239 1.08554C1.92239 1.09633 1.91151 1.10712 1.91151 1.11791C1.91151 1.12871 1.90065 1.1395 1.90065 1.15029C1.90065 1.16109 1.88979 1.17188 1.88979 1.18267C1.88979 1.19346 1.87891 1.20425 1.87891 1.21504C1.87891 1.22584 1.87892 1.23663 1.86805 1.24742C1.86805 1.25822 1.85719 1.26901 1.85719 1.2798V1.29059C1.85719 1.30139 1.85719 1.30138 1.85719 1.31218C1.85719 1.32297 1.85719 1.33376 1.85719 1.34456C1.85719 1.35535 1.85719 1.36614 1.85719 1.37693C1.85719 1.38772 1.85719 1.39852 1.85719 1.40931C1.85719 1.4201 1.85719 1.43089 1.85719 1.44169C1.85719 1.45248 1.85719 1.46327 1.85719 1.47406C1.85719 1.48486 1.85719 1.49565 1.85719 1.50644C1.85719 1.51723 1.85719 1.52803 1.85719 1.53882C1.85719 1.54961 1.85719 1.5604 1.86805 1.57119C1.86805 1.58199 1.87891 1.59278 1.87891 1.60357C1.87891 1.61436 1.88979 1.62516 1.88979 1.63595C1.88979 1.64674 1.90065 1.65753 1.90065 1.66833C1.90065 1.67912 1.91151 1.68991 1.91151 1.7007C1.91151 1.71149 1.92239 1.72229 1.92239 1.73308C1.92239 1.74387 1.93325 1.75467 1.93325 1.76546C1.94411 1.77625 1.94412 1.78704 1.95499 1.78704C1.96585 1.79784 1.96586 1.80863 1.97672 1.81942L1.98758 1.83021L6.18192 7.04292H1.09655C1.08568 7.04292 1.08569 7.04292 1.07483 7.04292C1.06396 7.04292 1.0531 7.04292 1.04223 7.04292C1.03136 7.04292 1.0205 7.04292 1.00963 7.04292C0.998768 7.04292 0.987886 7.04292 0.97702 7.04292C0.966154 7.04292 0.955289 7.04292 0.944423 7.05371C0.933557 7.05371 0.922692 7.05372 0.911826 7.06451C0.90096 7.06451 0.890095 7.0753 0.879229 7.0753C0.868362 7.0753 0.857508 7.08609 0.857508 7.08609C0.846642 7.08609 0.835761 7.09688 0.824894 7.09688C0.814028 7.09688 0.803163 7.10768 0.792297 7.10768C0.781431 7.10768 0.770566 7.11847 0.7597 7.11847C0.748834 7.12926 0.737969 7.12926 0.727103 7.14006C0.716237 7.14006 0.716232 7.15085 0.705366 7.15085C0.6945 7.16164 0.683635 7.16164 0.672769 7.17243C0.661903 7.18322 0.661915 7.18322 0.651048 7.19402C0.640182 7.20481 0.629311 7.20481 0.629311 7.2156C0.618445 7.22639 0.618441 7.22639 0.607574 7.23719C0.596708 7.24798 0.59672 7.24798 0.585854 7.25877C0.574988 7.26956 0.574983 7.28036 0.564117 7.29115L0.55324 7.30194C0.55324 7.30194 0.553246 7.31273 0.54238 7.31273C0.531514 7.32353 0.531509 7.33432 0.520643 7.34511C0.520643 7.3559 0.509783 7.3559 0.509783 7.36669C0.498917 7.37749 0.498912 7.38828 0.488046 7.39907C0.488046 7.40987 0.477186 7.42066 0.477186 7.42066C0.477186 7.43145 0.466326 7.44224 0.466326 7.45303C0.466326 7.46383 0.455449 7.47462 0.455449 7.48541C0.455449 7.4962 0.444589 7.50699 0.444589 7.51779C0.444589 7.52858 0.433712 7.53937 0.433712 7.55017C0.433712 7.56096 0.433712 7.57175 0.433712 7.58254C0.433712 7.59333 0.433718 7.60413 0.422852 7.61492C0.422852 7.62571 0.422852 7.6365 0.422852 7.6365C0.422852 7.6473 0.422852 7.65809 0.422852 7.67967V7.69046C0.422852 7.70126 0.422852 7.70126 0.422852 7.71205C0.422852 7.72284 0.422852 7.73364 0.422852 7.74443C0.422852 7.75522 0.422852 7.76601 0.422852 7.77681C0.422852 7.7876 0.422852 7.79839 0.422852 7.80918C0.422852 7.81997 0.422846 7.83077 0.433712 7.84156C0.433712 7.85235 0.433722 7.86314 0.444589 7.87394C0.444589 7.88473 0.455449 7.89552 0.455449 7.90631C0.455449 7.9171 0.466326 7.9279 0.466326 7.9279C0.466326 7.93869 0.477186 7.94948 0.477186 7.96027C0.477186 7.97107 0.488046 7.98186 0.488046 7.99265C0.488046 8.00345 0.498923 8.01424 0.498923 8.02503C0.509789 8.03582 0.509777 8.04661 0.520643 8.0574C0.520643 8.0682 0.53152 8.0682 0.53152 8.07899C0.542386 8.08978 0.542374 8.10058 0.55324 8.11137C0.564106 8.12216 0.564111 8.12216 0.574977 8.13295C0.585843 8.14374 0.585848 8.15454 0.596714 8.15454C0.60758 8.16533 0.607585 8.16533 0.618451 8.17612C0.629317 8.18691 0.629305 8.18691 0.640172 8.19771C0.651038 8.2085 0.661903 8.2085 0.672769 8.21929L0.683646 8.23008L15.7985 19.152L13.0493 36.873C13.0493 36.873 13.0493 36.873 13.0493 36.8838C13.0493 36.8838 13.0493 36.8838 13.0493 36.8946C13.0493 36.9162 13.0493 36.927 13.0385 36.9486C13.0385 36.9594 13.0385 36.9594 13.0385 36.9702C13.0385 36.9809 13.0385 37.0025 13.0385 37.0133C13.0385 37.0241 13.0385 37.0349 13.0385 37.0457C13.0385 37.0565 13.0385 37.0673 13.0385 37.0781C13.0385 37.0889 13.0385 37.0997 13.0493 37.1105C13.0493 37.1212 13.0493 37.132 13.0493 37.132C13.0493 37.1428 13.0602 37.1536 13.0602 37.1644C13.0602 37.1752 13.0602 37.1752 13.0711 37.186C13.0711 37.1968 13.0819 37.2076 13.0819 37.2184C13.0819 37.2292 13.0928 37.24 13.0928 37.24C13.0928 37.2508 13.1037 37.2615 13.1037 37.2723C13.1037 37.2831 13.1145 37.2939 13.1145 37.3047C13.1145 37.3155 13.1254 37.3155 13.1254 37.3263C13.1363 37.3371 13.1363 37.3479 13.1471 37.3587C13.1471 37.3695 13.158 37.3695 13.158 37.3803C13.1689 37.3911 13.1689 37.4019 13.1797 37.4126C13.1797 37.4234 13.1906 37.4234 13.2015 37.4342C13.2123 37.445 13.2232 37.4558 13.2341 37.4666C13.2449 37.4774 13.2449 37.4774 13.2558 37.4882C13.2667 37.499 13.2775 37.499 13.2775 37.5098C13.2884 37.5206 13.2993 37.5206 13.3101 37.5314C13.321 37.5314 13.321 37.5421 13.3319 37.5421C13.3427 37.5529 13.3645 37.5637 13.3862 37.5745C13.3862 37.5745 13.3862 37.5745 13.3971 37.5745C13.4188 37.5853 13.4405 37.5961 13.4623 37.6069C13.4731 37.6069 13.4731 37.6069 13.484 37.6177C13.4949 37.6177 13.5166 37.6285 13.5383 37.6285C13.5492 37.6285 13.5601 37.6285 13.5709 37.6393C13.5818 37.6393 13.5818 37.6393 13.5926 37.6393H13.6035C13.6361 37.6393 13.6687 37.6501 13.6904 37.6501C13.7122 37.6501 13.7448 37.6501 13.7665 37.6393H13.7774C13.8317 37.6285 13.886 37.6177 13.9295 37.5961C13.9295 37.5961 13.9404 37.5961 13.9404 37.5853C13.9621 37.5745 13.9838 37.5637 14.0056 37.5529C14.0056 37.5529 14.0164 37.5529 14.0164 37.5421C14.0382 37.5314 14.049 37.5206 14.0708 37.499L14.0816 37.4882C14.1034 37.4774 14.1251 37.4558 14.136 37.4342L14.1468 37.4234C14.1686 37.4018 14.1794 37.3803 14.2012 37.3587C14.2229 37.3371 14.2338 37.3047 14.2446 37.2831C14.2446 37.2831 14.2446 37.2831 14.2446 37.2723L19.0475 27.7211L34.9773 20.8464C34.9773 20.8464 34.9881 20.8464 34.9881 20.8356C34.999 20.8248 35.0099 20.8248 35.0207 20.814C35.0207 20.814 35.0207 20.814 35.0316 20.814L35.0425 20.8032C35.0533 20.7924 35.0642 20.7924 35.0751 20.7816C35.0859 20.7816 35.0859 20.7708 35.0968 20.7708C35.0968 20.7708 35.0968 20.7708 35.1077 20.7708C35.1185 20.7708 35.1185 20.76 35.1294 20.7492C35.1402 20.7492 35.1403 20.7384 35.1511 20.7384C35.162 20.7384 35.162 20.7276 35.1729 20.7276C35.1729 20.7276 35.1729 20.7276 35.1837 20.7169C35.1837 20.7169 35.1837 20.7169 35.1837 20.7061L35.1946 20.6953C35.2055 20.6845 35.2054 20.6845 35.2054 20.6737C35.2054 20.6629 35.2163 20.6629 35.2163 20.6521L35.2272 20.6413C35.2272 20.6413 35.2272 20.6305 35.238 20.6305C35.238 20.6305 35.2381 20.6197 35.2489 20.6197C35.2489 20.6089 35.2598 20.6089 35.2598 20.5981C35.2598 20.5981 35.2598 20.5981 35.2598 20.5873C35.2598 20.5765 35.2706 20.5658 35.2706 20.5658C35.2706 20.555 35.2815 20.555 35.2815 20.5442C35.2815 20.5334 35.2924 20.5226 35.2924 20.5118C35.2924 20.501 35.3032 20.501 35.3032 20.4902C35.3032 20.4794 35.3141 20.4686 35.3141 20.4578C35.3141 20.4578 35.3141 20.4578 35.3141 20.447V20.4363L38.2697 11.144H44.5069C44.5286 11.144 44.5504 11.144 44.583 11.144C44.5938 11.144 44.5938 11.144 44.6047 11.144C44.6264 11.144 44.6373 11.1332 44.659 11.1332C44.6699 11.1332 44.6699 11.1332 44.6807 11.1332C44.7025 11.1332 44.7134 11.1224 44.7351 11.1116C44.746 11.1116 44.746 11.1116 44.7568 11.1009C44.7785 11.0901 44.8003 11.0793 44.822 11.0685C44.8437 11.0577 44.8655 11.0469 44.8872 11.0361C44.8981 11.0361 44.8981 11.0253 44.9089 11.0253C44.9198 11.0145 44.9307 11.0037 44.9416 10.9929C44.9524 10.9821 44.9524 10.9821 44.9633 10.9713C44.9741 10.9606 44.9959 10.939 45.0068 10.9174C45.0068 10.9174 45.0068 10.9174 45.0068 10.9066C45.1589 10.8742 45.1806 10.8526 45.1915 10.831ZM37.9111 8.31642L34.5535 18.8822L29.5116 12.7629L37.9111 8.31642ZM4.12822 2.35904L21.2642 5.40248L16.3635 17.5655L4.12822 2.35904ZM33.3256 19.4649L17.5045 18.2562L22.3725 6.16874L33.3256 19.4649ZM19.1127 26.2965L17.4175 19.5621L32.1195 20.6845L19.1127 26.2965ZM17.9717 27.1275L15.0487 32.9446L16.7221 22.1414L17.9717 27.1275ZM12.9841 15.4502L3.13939 8.33801H7.25768L12.9841 15.4502ZM39.3889 7.99265L42.3337 9.82736H38.813L39.3889 7.99265Z" fill="white"/>
</svg>
