<svg width="40" height="36" viewBox="0 0 40 36" fill="none" xmlns="http://www.w3.org/2000/svg">
<path d="M39.3077 0.0530367C38.9305 0.129074 38.5089 0.324597 38.3425 0.400634C37.233 0.92203 35.9572 1.2479 34.7812 1.57377C34.0268 1.78016 33.2724 1.99741 32.5512 2.24724C30.2214 3.07279 27.8584 3.75712 25.5175 4.55008C23.2542 5.32131 21.0132 6.16858 18.7278 6.87464C16.4202 7.5807 14.2013 8.5909 11.9159 9.373C9.57496 10.166 7.20077 10.8611 4.87097 11.6976C3.71717 12.1103 2.519 12.3819 1.38738 12.8272C0.921421 13.0119 0.122629 13.1857 0.0671579 13.794C0.0227807 14.348 0.65515 14.7499 1.03236 15.0323C1.96428 15.7384 2.92948 16.4227 3.87249 17.1179C4.70456 17.7371 5.66978 18.1933 6.59061 18.6712C7.54472 19.1709 8.47662 19.6814 8.72069 20.746C9.35307 23.4616 9.43074 26.2749 9.77466 29.0231C9.94108 30.4244 10.1741 31.8148 10.2961 33.216C10.3627 33.9221 10.2406 35.2256 10.8397 35.7687C10.9617 35.8773 11.1282 35.9316 11.2946 35.9099C11.4055 35.9425 11.5386 35.9208 11.6274 35.8339C12.3596 35.0952 12.9587 34.1828 13.6022 33.3681C14.3899 32.3905 15.1776 31.4129 15.8876 30.3918C16.6088 29.3599 17.3188 28.3497 18.1176 27.3612C18.3505 27.0679 18.7167 26.666 18.9386 26.2532C20.2477 27.057 21.6012 27.8065 22.9658 28.5017C24.0419 29.0557 25.4509 30.4135 26.4494 29.0666C27.6476 27.4589 28.3576 25.4059 29.2341 23.6245C30.987 20.0616 32.5291 16.3901 34.2265 12.7947C35.1917 10.7634 36.3011 8.79729 37.2663 6.76601C37.7434 5.77753 38.1872 4.76733 38.5977 3.75712C39.0303 2.70347 39.6183 1.67154 39.9178 0.574433C40.0732 0.0421738 39.7293 -0.0338627 39.3077 0.0530367ZM9.07572 19.1057C8.3435 18.4648 7.50032 18.0303 6.63496 17.5741C5.60319 17.031 4.69349 16.4227 3.75047 15.7492C3.3067 15.4234 2.85181 15.0975 2.40804 14.7825C2.15287 14.5978 1.57599 14.2937 1.28754 13.9678C1.79787 13.6745 2.60776 13.5442 3.09591 13.403C3.99455 13.1314 4.85988 12.8381 5.73633 12.5231C7.41156 11.9257 9.1201 11.3825 10.8175 10.8286C14.168 9.73146 17.4408 8.43883 20.7691 7.27655C23.9532 6.15772 27.1594 5.14751 30.3546 4.083C31.9632 3.55074 33.5497 2.92072 35.1584 2.3776C34.0712 3.02934 33.0061 3.72453 31.9189 4.36542C29.5225 5.76667 27.1594 7.27655 24.8518 8.81901C22.2557 10.557 19.5931 12.1864 17.0414 14.0113C14.4897 15.8361 11.8493 17.5958 9.14228 19.1926C9.12009 19.1492 9.09791 19.1275 9.07572 19.1057ZM11.339 33.1726C11.3057 32.7707 11.2724 32.3796 11.2169 31.9777C11.0616 30.7394 10.873 29.5119 10.7399 28.2736C10.4958 25.9165 10.2517 23.5919 9.8634 21.2456C9.78574 20.7677 9.71918 20.2137 9.51948 19.7466C10.7953 19.3773 11.9491 18.5409 13.0253 17.8131C14.4121 16.8789 15.8432 16.0099 17.1968 15.0432C19.7706 13.2183 22.4998 11.6215 25.0737 9.79663C26.2719 8.94936 27.5366 8.13468 28.8235 7.4069C29.9774 6.74429 31.0203 5.92961 32.1852 5.27786C32.5735 5.06061 32.9507 4.82164 33.3279 4.58267C32.5513 5.22355 31.7968 5.8753 31.0313 6.52704C29.7777 7.59156 28.4352 8.55832 27.1594 9.59025C25.7837 10.6982 24.4857 11.8931 23.1544 13.0445C20.9466 14.9454 18.9164 17.031 16.7086 18.9211C16.1983 19.3556 15.699 19.8444 15.222 20.3115C14.7671 20.746 14.168 21.2999 13.7908 21.8105C13.3581 22.397 13.347 23.0271 13.347 23.6679C13.2583 24.1024 13.2139 24.5369 13.1584 24.8737C12.9698 25.9816 12.7368 27.0679 12.5371 28.1759C12.3152 29.3924 12.0379 30.5873 11.7162 31.7822C11.5608 32.2384 11.4499 32.7055 11.339 33.1726ZM17.1302 27.0462C16.3758 27.9695 15.7323 28.9579 15.0556 29.9356C14.3566 30.9458 13.5689 31.9017 12.8256 32.8793C12.6592 33.0857 12.4928 33.2921 12.3263 33.5093C12.5815 32.4448 12.8922 31.402 13.1362 30.3375C13.6022 28.2845 13.8463 26.1772 14.3344 24.1242C14.3788 23.9504 14.4232 23.5267 14.523 23.4073C14.5452 23.3747 14.5563 23.3529 14.5674 23.3421C14.5785 23.3529 14.6007 23.3529 14.6118 23.3638C14.8447 23.4398 15.1998 23.8309 15.3995 23.9721C16.1095 24.4826 16.875 24.9497 17.6072 25.4385C17.7626 25.5363 17.9179 25.634 18.0732 25.7318C17.696 26.1229 17.4297 26.6877 17.1302 27.0462ZM37.8654 2.81209C37.4771 3.83316 37.0112 4.82164 36.5674 5.82098C35.7464 7.68932 34.8034 9.55766 33.7938 11.3282C31.9743 14.5435 30.643 18.0738 29.1342 21.4303C28.3132 23.266 27.3924 25.1127 26.4605 26.905C26.2719 27.2743 26.0944 27.7739 25.8059 28.089C25.3622 28.5778 24.996 28.48 24.4302 28.1759C23.6314 27.7305 22.7994 27.3394 22.0006 26.8724C20.3142 25.873 18.6723 24.852 17.0303 23.7983C16.3647 23.3638 15.7545 22.8533 15.0999 22.4188C14.9668 22.3319 14.8226 22.2667 14.6673 22.2232C14.7005 22.1689 14.7449 22.1255 14.7893 22.0712C15.6657 21.0827 16.7308 20.1594 17.7515 19.323C18.7167 18.53 19.5265 17.5959 20.4363 16.7594C21.6123 15.6949 22.7439 14.6087 23.9421 13.5659C25.1957 12.4905 26.4161 11.3717 27.6919 10.318C28.9567 9.2861 30.288 8.34107 31.5306 7.28741C33.6385 5.49511 35.8684 3.80057 37.9542 1.98655C38.0873 1.92137 38.2093 1.84533 38.3314 1.7693C38.165 2.12776 37.9986 2.46449 37.8654 2.81209Z" fill="#1A8BFF"/>
</svg>
