<svg width="44" height="36" viewBox="0 0 44 36" fill="none" xmlns="http://www.w3.org/2000/svg">
<path d="M39.1946 6.28317H4.43906C1.99206 6.28317 0.00146484 8.20893 0.00146484 10.5752V31.6632C0.00146484 34.0294 1.99206 35.9543 4.43906 35.9543H39.1946C41.6416 35.9543 43.6321 34.0294 43.6321 31.6632V10.5752C43.6321 8.20893 41.6416 6.28317 39.1946 6.28317ZM42.934 31.6623C42.934 33.6564 41.2567 35.2784 39.1946 35.2784H4.43906C2.37691 35.2792 0.699612 33.6564 0.699612 31.6623V10.5752C0.699612 8.58109 2.37691 6.95913 4.43906 6.95913H39.1946C41.2567 6.95913 42.934 8.58109 42.934 10.5752V31.6623Z" fill="#007EFF"/>
<path d="M35.4464 32.3138H4.58742C2.47989 32.3138 0.699612 30.6666 0.699612 28.718C0.699612 28.5315 0.543401 28.3805 0.350538 28.3805C0.157675 28.3805 0.00146484 28.5315 0.00146484 28.718C0.00146484 31.0328 2.10114 32.989 4.58742 32.989H35.4464C35.6392 32.989 35.7955 32.8379 35.7955 32.6514C35.7955 32.4649 35.6392 32.3138 35.4464 32.3138Z" fill="#007EFF"/>
<path d="M43.2828 28.2224C43.0899 28.2224 42.9337 28.3735 42.9337 28.56C42.9337 30.6056 41.4022 32.1482 39.3706 32.1482C39.1777 32.1482 39.0215 32.2993 39.0215 32.4858C39.0215 32.6723 39.1777 32.8233 39.3706 32.8233C41.76 32.8233 43.6319 30.9507 43.6319 28.56C43.6319 28.3743 43.4757 28.2224 43.2828 28.2224Z" fill="#007EFF"/>
<path d="M43.4259 9.77345C43.3168 9.61902 43.1004 9.57936 42.9407 9.684L25.1318 21.4132C24.7662 21.6554 24.3421 21.8512 23.8708 21.9955C23.6876 22.0521 23.5855 22.2419 23.6439 22.4191C23.691 22.5626 23.8289 22.6546 23.9764 22.6546C24.0113 22.6546 24.0471 22.6495 24.082 22.6386C24.6178 22.474 25.1039 22.2487 25.5254 21.9702L43.3334 10.2427C43.4931 10.138 43.5341 9.92788 43.4259 9.77345Z" fill="#007EFF"/>
<path d="M20.0438 21.9979C19.5699 21.8536 19.1432 21.6561 18.7749 21.4131L0.77581 9.47286C0.616109 9.36738 0.398811 9.40704 0.290598 9.56063C0.181513 9.71421 0.222529 9.92519 0.381357 10.0298L18.3813 21.9709C18.8063 22.2519 19.295 22.4772 19.8343 22.6426C19.8693 22.6536 19.905 22.6586 19.9399 22.6586C20.0883 22.6586 20.2253 22.5667 20.2724 22.4223C20.33 22.2434 20.2279 22.0536 20.0438 21.9979Z" fill="#007EFF"/>
<path d="M26.7446 0.0231934H17.2149C14.3944 0.0231934 12.2686 2.0865 12.2686 4.8224V6.62073C12.2686 6.80723 12.4248 6.95828 12.6176 6.95828C12.8105 6.95828 12.9667 6.80723 12.9667 6.62073V4.8224C12.9667 2.47132 14.7932 0.698305 17.2149 0.698305H26.7446C29.1759 0.698305 31.0086 2.47132 31.0086 4.8224V6.62073C31.0086 6.80723 31.1648 6.95828 31.3576 6.95828C31.5505 6.95828 31.7067 6.80723 31.7067 6.62073V4.8224C31.7067 2.0865 29.5739 0.0231934 26.7446 0.0231934Z" fill="#007EFF"/>
<path d="M26.7505 1.34113H17.5594C15.3986 1.34113 13.6401 2.89473 13.6401 4.80361V6.6205C13.6401 6.807 13.7963 6.95806 13.9892 6.95806C14.1821 6.95806 14.3383 6.807 14.3383 6.6205V4.80361C14.3383 3.26688 15.7834 2.01624 17.5594 2.01624H26.7505C28.4286 2.01624 29.6469 3.1884 29.6469 4.80361V6.62135C29.6469 6.80784 29.8031 6.9589 29.996 6.9589C30.1888 6.9589 30.3451 6.80784 30.3451 6.62135V4.80361C30.3451 2.79684 28.8327 1.34113 26.7505 1.34113Z" fill="#007EFF"/>
<path d="M21.9578 20.2978C20.6383 20.2978 19.5649 21.3358 19.5649 22.6118C19.5649 23.8877 20.6383 24.9257 21.9578 24.9257C23.2773 24.9257 24.3507 23.8877 24.3507 22.6118C24.3507 21.3358 23.2773 20.2978 21.9578 20.2978ZM21.9578 24.2498C21.0241 24.2498 20.2631 23.5147 20.2631 22.6109C20.2631 21.7071 21.0232 20.9721 21.9578 20.9721C22.8925 20.9721 23.6526 21.7071 23.6526 22.6109C23.6526 23.5147 22.8925 24.2498 21.9578 24.2498Z" fill="#007EFF"/>
</svg>
