<svg width="133" height="133" viewBox="0 0 133 133" fill="none" xmlns="http://www.w3.org/2000/svg">
<circle cx="66.5" cy="66.5" r="66.5" fill="#1A8BFF"/>
<circle cx="66.5" cy="66.5" r="53.2793" fill="#3398FF"/>
<circle cx="66.4997" cy="66.5" r="37.6789" fill="#4DA5FF"/>
<circle cx="66.4998" cy="66.5001" r="26.5736" fill="#66B2FF"/>
<path d="M63.7131 61.8441C63.5568 61.9295 63.4604 62.0922 63.4604 62.2698V70.9945C63.4604 71.1722 63.5568 71.3349 63.7131 71.4199C63.7849 71.4589 63.8653 71.4789 63.9449 71.4789C64.0357 71.4789 64.1275 71.4535 64.207 71.4017L70.9928 67.0393C71.1309 66.9503 71.2154 66.7967 71.2154 66.6317C71.2154 66.4668 71.1314 66.3132 70.9928 66.2241L64.207 61.8618C64.0589 61.7645 63.8667 61.76 63.7131 61.8441Z" fill="white"/>
<path d="M69.5424 55.44C69.5424 55.44 69.4678 55.4173 69.4528 55.4132C68.4536 55.1383 67.4157 54.9993 66.3683 54.9993C66.1738 54.9993 65.9975 55.1156 65.9221 55.2951C65.8462 55.4746 65.8852 55.6818 66.0207 55.8213L68.5858 58.4669C68.6785 58.5623 68.8044 58.6141 68.9339 58.6141C68.9816 58.6141 69.0293 58.6068 69.0766 58.5928C69.2506 58.5387 69.3806 58.3919 69.4119 58.2129L69.5396 57.4781C74.2446 59.1126 77.1601 64.2143 75.6728 69.3632C74.7208 72.6586 71.9939 75.1452 68.6817 76.0381L68.4309 76.1058C68.1723 76.1753 68.0192 76.4416 68.0891 76.7002L68.3418 77.6362C68.4113 77.8948 68.6776 78.0479 68.9362 77.978L69.0552 77.9457C73.4008 76.7724 76.8938 73.3375 77.7749 68.9234C78.9832 62.866 75.2489 57.0605 69.5424 55.44Z" fill="white"/>
<path d="M64.1513 74.7973C64.0586 74.7019 63.9327 74.6501 63.8032 74.6501C63.7555 74.6501 63.7078 74.6573 63.661 74.6714C63.4869 74.7255 63.357 74.8723 63.3256 75.0513L63.1979 75.7861C58.493 74.1516 55.5775 69.0499 57.0647 63.901C58.0167 60.6056 60.7437 58.119 64.0559 57.2261L64.3067 57.1584C64.5653 57.0889 64.7184 56.8226 64.6484 56.564L64.3958 55.628C64.3258 55.3694 64.06 55.2163 63.8014 55.2862L63.6823 55.3185C59.3377 56.4918 55.8446 59.9267 54.9631 64.3404C53.7534 70.3981 57.4878 76.2037 63.1943 77.8241C63.1943 77.8241 63.2688 77.8469 63.2838 77.851C64.2831 78.1254 65.3209 78.2645 66.3688 78.2645C66.5633 78.2645 66.7396 78.1481 66.8151 77.9686C66.8909 77.7892 66.8519 77.5819 66.7164 77.4424L64.1513 74.7973Z" fill="white"/>
</svg>
