<svg width="15" height="15" viewBox="0 0 15 15" fill="none" xmlns="http://www.w3.org/2000/svg">
<path d="M6.50965 0.711533L13.9107 7.17024C13.9776 7.22863 14.0314 7.30081 14.0682 7.38189C14.105 7.46297 14.124 7.55106 14.124 7.6402C14.124 7.72933 14.105 7.81743 14.0682 7.89851C14.0314 7.97959 13.9776 8.05177 13.9107 8.11015L6.50964 14.5669C6.48734 14.5864 6.45992 14.5991 6.43067 14.6034C6.40141 14.6076 6.37155 14.6034 6.34464 14.5911C6.31772 14.5788 6.29489 14.559 6.27886 14.534C6.26284 14.509 6.25429 14.4799 6.25424 14.4502L6.25424 12.8739C6.25424 12.7844 6.29293 12.6988 6.36066 12.6384L11.2424 8.3787L0.346958 8.3787C0.261822 8.3787 0.192165 8.30864 0.192165 8.22302L0.192165 7.05543C0.192165 6.96981 0.261822 6.89975 0.346958 6.89975L11.2424 6.89975L6.36066 2.64C6.29294 2.58162 6.25424 2.496 6.25424 2.40454L6.25424 0.828293C6.25424 0.695966 6.40903 0.623964 6.50965 0.711533Z" fill="white"/>
</svg>
