<svg width="55" height="55" viewBox="0 0 55 55" fill="none" xmlns="http://www.w3.org/2000/svg">
<path d="M18.552 0.768066C28.6368 0.768066 36.8424 8.97258 36.8424 19.0584C36.8424 23.1596 35.4684 26.9374 33.1799 29.9923L36.3318 33.1441L37.7133 31.7625L52.9259 46.974C53.787 47.8373 54.2617 48.9827 54.2617 50.2009C54.2617 52.7191 52.2128 54.7681 49.6957 54.7681C48.4752 54.7681 47.3288 54.2934 46.4666 53.43L31.2562 38.2197L32.6378 36.8381L29.486 33.6863C26.431 35.9748 22.6532 37.3487 18.552 37.3487C8.46732 37.3487 0.261719 29.1442 0.261719 19.0584C0.261719 8.97258 8.46732 0.768066 18.552 0.768066ZM47.7001 52.1998C48.2324 52.7333 48.9412 53.0261 49.6968 53.0261C51.2536 53.0261 52.5198 51.7589 52.5198 50.2009C52.5198 49.4465 52.2258 48.7377 51.6935 48.2042L37.7133 34.2252L33.7189 38.2197L47.7001 52.1998ZM33.8691 35.6068L35.1004 34.3754L32.0662 31.3401C31.6753 31.7702 31.2638 32.1806 30.8338 32.5725L33.8691 35.6068ZM18.552 35.6068C27.6776 35.6068 35.1004 28.184 35.1004 19.0584C35.1004 9.93282 27.6776 2.51 18.552 2.51C9.42648 2.51 2.00365 9.93282 2.00365 19.0584C2.00365 28.184 9.42648 35.6068 18.552 35.6068ZM24.1023 18.3692C25.9629 18.9005 27.2617 20.6229 27.2617 22.5564V26.8971H9.84237V22.5575C9.84237 20.6229 11.1412 18.9005 13.0018 18.3703L15.9391 17.532V17.3001C14.8537 16.4825 14.1972 15.1956 14.1972 13.8348V12.2736C14.1972 9.93282 15.9402 7.94811 18.1645 7.7554C19.3882 7.64762 20.5977 8.06024 21.4937 8.88222C22.3919 9.70311 22.9069 10.8735 22.9069 12.0906V13.8326C22.9069 15.1935 22.2504 16.4814 21.1649 17.2979V17.5298L24.1023 18.3692ZM19.8563 16.0808C20.675 15.6039 21.1649 14.7623 21.1649 13.8326V12.0906C21.1649 11.3612 20.8568 10.6579 20.3168 10.1636C19.7714 9.66391 19.0583 9.42657 18.3158 9.48754C16.9832 9.60403 15.9391 10.8256 15.9391 12.2714V13.8326C15.9391 14.7623 16.4291 15.6039 17.2478 16.0808L17.6811 16.3323V18.8439L13.4797 20.0437C12.3638 20.3638 11.5843 21.3969 11.5843 22.5564V25.1552H25.5198V22.5575C25.5198 21.3969 24.7403 20.3638 23.6243 20.0448L19.423 18.8439V16.3323L19.8563 16.0808ZM49.0359 50.4132C49.0359 50.8933 49.4268 51.2842 49.9069 51.2842C50.387 51.2842 50.7778 50.8933 50.7778 50.4132C50.7778 49.9331 50.387 49.5423 49.9069 49.5423C49.4268 49.5423 49.0359 49.9331 49.0359 50.4132ZM7.4668 9.26762C2.29543 15.114 2.56652 24.0131 8.08301 29.5285C10.955 32.4005 14.7437 33.8507 18.5422 33.8507C22.0381 33.8507 25.5405 32.6226 28.3428 30.1447L27.1899 28.8404C22.0305 33.4011 14.1798 33.1637 9.31543 28.2983C4.44889 23.4328 4.21156 15.5811 8.77325 10.4238L7.4668 9.26762ZM28.3319 27.6951L29.6362 28.8492C34.8076 23.0028 34.5365 14.1037 29.02 8.58827C23.5035 3.07287 14.6055 2.80286 8.76019 7.97206L9.91313 9.27633C15.0714 4.71573 22.9221 4.95415 27.7876 9.81851C32.6552 14.685 32.8936 22.5368 28.3319 27.6951ZM40.3262 0.768066V2.51H42.0682V0.768066H40.3262ZM42.0682 4.25194H40.3262V5.99387H42.0682V4.25194ZM40.3262 4.25194V2.51H38.5843V4.25194H40.3262ZM42.0682 2.51V4.25194H43.8101V2.51H42.0682ZM50.7778 14.7036H52.5198V12.9616H50.7778V14.7036ZM52.5198 16.4455H50.7778V18.1874H52.5198V16.4455ZM50.7778 16.4455V14.7036H49.0359V16.4455H50.7778ZM52.5198 16.4455H54.2617V14.7036H52.5198V16.4455ZM41.1972 26.8971H42.9391V25.1552H41.1972V26.8971ZM42.9391 28.639H41.1972V30.381H42.9391V28.639ZM41.1972 28.639V26.8971H39.4553V28.639H41.1972ZM44.6811 26.8971H42.9391V28.639H44.6811V26.8971ZM2.00365 42.5745H3.74559V40.8326H2.00365V42.5745ZM3.74559 44.3165H2.00365V46.0584H3.74559V44.3165ZM2.00365 42.5745H0.261719V44.3165H2.00365V42.5745ZM3.74559 42.5745V44.3165H5.48753V42.5745H3.74559ZM17.6811 49.5423V51.2842H19.423V49.5423H17.6811ZM19.423 53.0261H17.6811V54.7681H19.423V53.0261ZM17.6811 53.0261V51.2842H15.9391V53.0261H17.6811ZM19.423 51.2842V53.0261H21.1649V51.2842H19.423ZM26.3908 38.2197V39.9616H28.1327V38.2197H26.3908ZM28.1327 41.7036H26.3908V43.4455H28.1327V41.7036ZM26.3908 41.7036V39.9616H24.6488V41.7036H26.3908ZM28.1327 39.9616V41.7036H29.8746V39.9616H28.1327Z" fill="#007EFF"/>
</svg>
