<svg width="55" height="55" viewBox="0 0 55 55" fill="none" xmlns="http://www.w3.org/2000/svg">
<path d="M40.983 40.3482H42.7535V42.0901H40.983V40.3482ZM40.983 38.6063H42.7535V36.8643H40.983V38.6063ZM40.983 35.1224H42.7535V33.3805H40.983V35.1224ZM40.983 31.6385H42.7535V29.8966H40.983V31.6385ZM0.261719 37.7353V6.38047C0.261719 4.9401 1.45348 3.76756 2.91746 3.76756H5.57319V2.02563C5.57319 1.06538 6.3677 0.283691 7.34369 0.283691H9.11418C10.0902 0.283691 10.8847 1.06538 10.8847 2.02563V3.76756H12.6552V2.02563C12.6552 1.06538 13.4497 0.283691 14.4257 0.283691H16.1961C17.1721 0.283691 17.9666 1.06538 17.9666 2.02563V3.76756H19.7371V2.02563C19.7371 1.06538 20.5316 0.283691 21.5076 0.283691H23.2781C24.2541 0.283691 25.0486 1.06538 25.0486 2.02563V3.76756H26.8191V2.02563C26.8191 1.06538 27.6136 0.283691 28.5896 0.283691H30.3601C31.3361 0.283691 32.1306 1.06538 32.1306 2.02563V3.76756H33.9011V2.02563C33.9011 1.06538 34.6956 0.283691 35.6716 0.283691H37.442C38.418 0.283691 39.2125 1.06538 39.2125 2.02563V3.76756H41.8683C43.3323 3.76756 44.524 4.9401 44.524 6.38047V17.703H52.4912C53.4672 17.703 54.2617 18.4847 54.2617 19.445V21.1869C54.2617 22.1472 53.4672 22.9289 52.4912 22.9289V25.4873C52.4912 29.0561 50.5348 32.3723 47.3856 34.1426C46.7139 34.5214 46.2945 35.2291 46.2945 35.9923C46.2945 36.7555 46.7139 37.4631 47.3856 37.842C50.5348 39.6133 52.4912 42.9295 52.4912 46.4972V49.0579C53.4672 49.0579 54.2617 49.8396 54.2617 50.7998V52.5418C54.2617 53.502 53.4672 54.2837 52.4912 54.2837H31.2453C30.2693 54.2837 29.4748 53.502 29.4748 52.5418V50.7998C29.4748 49.8396 30.2693 49.0579 31.2453 49.0579V46.4994C31.2453 44.236 32.0365 42.0782 33.4153 40.3482H2.91746C1.45348 40.3482 0.261719 39.1757 0.261719 37.7353ZM37.442 15.9611H33.9011V17.703H37.442V15.9611ZM32.1306 15.9611H28.5896V19.445H29.4748C29.4748 18.4847 30.2693 17.703 31.2453 17.703H32.1306V15.9611ZM36.351 37.8431C36.7516 37.6177 37.0481 37.2661 37.2329 36.8643H9.11418V38.6063H35.1935C35.5587 38.3287 35.9438 38.0728 36.351 37.8431ZM9.11418 35.1224H10.8847V31.6385H9.11418V35.1224ZM28.5896 26.4127V29.8966H32.3176C31.7732 28.8133 31.4257 27.6397 31.3084 26.4127H28.5896ZM32.1306 35.1224V31.6385H28.5896V35.1224H32.1306ZM17.9666 31.6385V35.1224H21.5076V31.6385H17.9666ZM21.5076 29.8966V26.4127H17.9666V29.8966H21.5076ZM23.2781 35.1224H26.8191V31.6385H23.2781V35.1224ZM26.8191 26.4127H23.2781V29.8966H26.8191V26.4127ZM26.8191 24.6708V21.1869H23.2781V24.6708H26.8191ZM21.5076 21.1869H17.9666V24.6708H21.5076V21.1869ZM16.1961 21.1869H12.6552V24.6708H16.1961V21.1869ZM12.6552 26.4127V29.8966H16.1961V26.4127H12.6552ZM12.6552 31.6385V35.1224H16.1961V31.6385H12.6552ZM37.2329 35.1224C37.0481 34.7196 36.7527 34.369 36.351 34.1437C35.4182 33.6189 34.6048 32.9461 33.9011 32.1829V35.1224H37.2329ZM31.2453 22.9289C30.2693 22.9289 29.4748 22.1472 29.4748 21.1869H28.5896V24.6708H31.2453V22.9289ZM26.8191 15.9611H23.2781V19.445H26.8191V15.9611ZM21.5076 15.9611H17.9666V19.445H21.5076V15.9611ZM16.1961 15.9611H12.6552V19.445H16.1961V15.9611ZM10.8847 15.9611H7.34369V19.445H10.8847V15.9611ZM7.34369 24.6708H10.8847V21.1869H7.34369V24.6708ZM7.34369 29.8966H10.8847V26.4127H7.34369V29.8966ZM2.98938 31.6385L7.34369 36.9928V31.6385H2.98938ZM2.91746 38.6063H6.38651L2.03221 33.252V37.7353C2.03221 38.2154 2.42946 38.6063 2.91746 38.6063ZM52.4912 50.7998H31.2453V52.5418H52.4934L52.4912 50.7998ZM49.2125 49.0579L47.5217 47.6317C45.947 46.3045 43.9409 45.574 41.8683 45.574C39.7957 45.574 37.7895 46.3045 36.2138 47.6317L34.5241 49.0579H49.2125ZM49.7846 29.2281C49.2258 29.619 48.5342 29.8966 47.6191 29.8966C45.7578 29.8966 44.8128 28.7534 44.0526 27.8324C43.3035 26.9255 42.8321 26.4127 41.8616 26.4127C40.8912 26.4127 40.4209 26.9255 39.6718 27.8324C38.9127 28.7524 37.9666 29.8966 36.1075 29.8966C35.1991 29.8966 34.5108 29.6212 33.9542 29.2347C34.6834 30.6315 35.7999 31.828 37.2274 32.6314C38.4512 33.3184 39.2103 34.6074 39.2103 35.9934C39.2103 37.3793 38.4512 38.6683 37.2274 39.3553C34.6292 40.8174 33.0136 43.5545 33.0136 46.4994V48.0356L35.0607 46.3089C36.9574 44.7118 39.3741 43.8321 41.8683 43.8321C44.3625 43.8321 46.7792 44.7118 48.6736 46.3089L50.7207 48.0356V46.4994C50.7207 43.5545 49.1063 40.8174 46.507 39.3553C45.2831 38.6683 44.524 37.3793 44.524 35.9934C44.524 34.6074 45.2831 33.3184 46.507 32.6314C47.9377 31.8269 49.0554 30.6282 49.7846 29.2281ZM50.7207 22.9289H33.0158V25.4873C33.0158 25.5777 33.0313 25.6648 33.0346 25.7551C33.3644 26.0643 33.6477 26.4018 33.9221 26.7339C34.6712 27.6408 35.1415 28.1536 36.1098 28.1536C37.0802 28.1536 37.5505 27.6408 38.2996 26.7339C39.0598 25.8139 40.0048 24.6697 41.8638 24.6697C43.7251 24.6697 44.669 25.8128 45.4281 26.7328C46.1783 27.6408 46.6486 28.1536 47.6202 28.1536C48.5917 28.1536 49.0631 27.6408 49.8134 26.7328C50.0834 26.4062 50.3766 26.0818 50.703 25.7747C50.7064 25.6778 50.7229 25.5831 50.7229 25.4862L50.7207 22.9289ZM52.4912 19.445H31.2453V21.1869H52.4923L52.4912 19.445ZM42.7535 17.703V12.4772H2.03221V29.8966H5.57319V14.2192H39.2125V17.703H42.7535ZM35.6716 7.25143H37.4432L37.442 2.02563H35.6716V7.25143ZM28.5896 7.25143H30.3612L30.3601 2.02563H28.5896V7.25143ZM21.5076 7.25143H23.2792L23.2781 2.02563H21.5076V7.25143ZM14.4257 7.25143H16.1973L16.1961 2.02563H14.4257V7.25143ZM7.34369 7.25143H9.11528L9.11418 2.02563H7.34369V7.25143ZM2.03221 6.38047V10.7353H42.7535V6.38047C42.7535 5.90034 42.3563 5.5095 41.8683 5.5095H39.2125V7.25143C39.2125 8.21168 38.418 8.99337 37.442 8.99337H35.6716C34.6956 8.99337 33.9011 8.21168 33.9011 7.25143V5.5095H32.1306V7.25143C32.1306 8.21168 31.3361 8.99337 30.3601 8.99337H28.5896C27.6136 8.99337 26.8191 8.21168 26.8191 7.25143V5.5095H25.0486V7.25143C25.0486 8.21168 24.2541 8.99337 23.2781 8.99337H21.5076C20.5316 8.99337 19.7371 8.21168 19.7371 7.25143V5.5095H17.9666V7.25143C17.9666 8.21168 17.1721 8.99337 16.1961 8.99337H14.4257C13.4497 8.99337 12.6552 8.21168 12.6552 7.25143V5.5095H10.8847V7.25143C10.8847 8.21168 10.0902 8.99337 9.11418 8.99337H7.34369C6.3677 8.99337 5.57319 8.21168 5.57319 7.25143V5.5095H2.91746C2.42946 5.5095 2.03221 5.90034 2.03221 6.38047Z" fill="#007EFF"/>
</svg>
