<svg width="47" height="55" viewBox="0 0 47 55" fill="none" xmlns="http://www.w3.org/2000/svg">
<path d="M0.416088 16.9876L5.68828 11.7618V4.28343H18.079C18.4876 2.29871 20.2626 0.799561 22.3835 0.799561C24.5045 0.799561 26.2795 2.29871 26.6881 4.28343H46.1084V49.5738H40.8362V54.7996H0.416088V16.9876ZM7.44567 12.4825L3.41574 16.477H7.44567V12.4825ZM7.44567 10.0198L7.96081 9.50924H17.9901V6.02537H7.44567V10.0198ZM44.351 47.8318V6.02537H26.777V9.50924H40.8362V47.8318H44.351ZM39.0788 53.0576V11.2512H26.777V13.8641C26.777 15.3044 25.5941 16.477 24.1409 16.477C22.6878 16.477 21.5048 15.3044 21.5048 13.8641V6.02537H23.2622V13.8641C23.2622 14.3442 23.6566 14.735 24.1409 14.735C24.6253 14.735 25.0196 14.3442 25.0196 13.8641V5.1544C25.0196 3.71404 23.8367 2.5415 22.3835 2.5415C20.9304 2.5415 19.7474 3.71404 19.7474 5.1544V16.477H17.9901V11.2512H9.20307V18.2189H2.17348V53.0576H39.0788ZM20.6261 44.3479C13.3582 44.3479 7.44567 38.4874 7.44567 31.2834C7.44567 24.0794 13.3582 18.2189 20.6261 18.2189C27.8941 18.2189 33.8066 24.0794 33.8066 31.2834C33.8066 38.4874 27.8941 44.3479 20.6261 44.3479ZM20.6261 42.606C23.8554 42.606 26.7704 41.2647 28.8497 39.1221H12.4026C14.4819 41.2647 17.3969 42.606 20.6261 42.606ZM21.942 30.0477C22.768 29.5709 23.2622 28.7293 23.2622 27.7996V26.0576C23.2622 25.3282 22.9503 24.6249 22.4066 24.1306C21.8563 23.6298 21.1435 23.3914 20.3878 23.4545C19.0445 23.5699 17.9912 24.7925 17.9912 26.2384V27.7996C17.9912 28.7293 18.4854 29.5709 19.3114 30.0477L19.7485 30.2992V32.8109L15.5099 34.0106C14.3841 34.3307 13.5977 35.3639 13.5977 36.5245V37.3802H27.6557V36.5245C27.6557 35.3639 26.8693 34.3307 25.7435 34.0117L21.5048 32.8109V30.2992L21.942 30.0477ZM20.6261 19.9609C14.3281 19.9609 9.20307 25.0408 9.20307 31.2834C9.20307 34.0281 10.1938 36.5463 11.8392 38.5081V36.5256C11.8392 34.592 13.1495 32.8697 15.0255 32.3373L17.9901 31.499V31.266C16.895 30.4484 16.2327 29.1615 16.2327 27.8006V26.2394C16.2327 23.8987 17.9912 21.914 20.2362 21.7213C21.4664 21.6135 22.69 22.0261 23.594 22.8481C24.5001 23.6701 25.0196 24.8404 25.0196 26.0576V27.7996C25.0196 29.1604 24.3573 30.4473 23.2622 31.2649V31.4979L26.2268 32.3373C28.1028 32.8686 29.4131 34.5909 29.4131 36.5245V38.507C31.0585 36.5452 32.0492 34.027 32.0492 31.2823C32.0492 25.0408 26.9242 19.9609 20.6261 19.9609ZM37.3214 46.0899H3.93088V47.8318H37.3214V46.0899ZM37.3214 49.5738H7.44567V51.3157H37.3214V49.5738ZM5.68828 49.5738H3.93088V51.3157H5.68828V49.5738Z" fill="#007EFF"/>
</svg>
