<svg width="30" height="30" viewBox="0 0 30 30" fill="none" xmlns="http://www.w3.org/2000/svg">
<path d="M12.3189 24.636C5.49614 24.636 0 19.1403 0 12.318C0 5.49573 5.49614 0 12.3189 0C19.1417 0 24.6379 5.49573 24.6379 12.318C24.6379 19.1403 19.1417 24.636 12.3189 24.636ZM12.3189 1.89508C6.53851 1.89508 1.89522 6.53802 1.89522 12.318C1.89522 18.098 6.53851 22.7409 12.3189 22.7409C18.0994 22.7409 22.7427 18.098 22.7427 12.318C22.7427 6.53802 18.0994 1.89508 12.3189 1.89508Z" fill="white"/>
<path d="M21.4903 20.1514L29.9999 28.6603L28.6599 30.0001L20.1504 21.4912L21.4903 20.1514Z" fill="white"/>
</svg>
