<svg width="73" height="64" viewBox="0 0 73 64" fill="none" xmlns="http://www.w3.org/2000/svg">
<path d="M12.888 13.7231H26.4895C25.6206 9.85902 25.1494 5.84783 25.1494 1.72255C25.1494 1.37012 25.1696 1.02529 25.1772 0.672852H16.1282H0.5V16.3043C0.5 16.3094 0.5 16.3119 0.5 16.3144V17.4301C4.45707 18.6319 8.60668 19.3925 12.888 19.6664V13.7231Z" fill="#4DA5FF"/>
<path d="M30.145 41.0763H41.8338C39.5386 38.8551 37.4385 36.4388 35.5588 33.845L30.145 41.0763Z" fill="#3398FF"/>
<path d="M18.9959 37.288C13.6227 33.5811 7.31721 31.1394 0.5 30.3762V47.6025C0.5 47.6076 0.5 47.6101 0.5 47.6152C0.505067 52.5975 2.84334 57.0245 6.46854 59.8845C7.80614 50.8784 12.394 42.9397 18.9959 37.288Z" fill="#007EFF"/>
<path d="M11.5861 50.1939L20.4654 38.3506C19.9841 37.9854 19.4952 37.6305 18.9961 37.2856C12.3942 42.9373 7.80635 50.876 6.46875 59.8796C9.12875 61.979 12.4778 63.2417 16.1284 63.2417H35.9213C35.0347 58.5586 33.35 54.1595 31.0143 50.1939H11.5861Z" fill="#4DA5FF"/>
<path d="M50.6297 13.7232L39.4932 28.594C40.6357 28.485 41.7934 28.4266 42.9638 28.4266C50.3586 28.4266 57.2417 30.6123 63.0152 34.3597V16.3145C63.0152 10.744 60.0968 5.86565 55.7116 3.0918C51.5797 7.36667 46.7537 10.9671 41.4236 13.7207H50.6297V13.7232Z" fill="#3398FF"/>
<path d="M29.38 22.8409H12.888V19.6689C8.60668 19.3951 4.45707 18.6345 0.5 17.4326V30.3764C7.31721 31.1396 13.6227 33.5838 18.9959 37.2882C19.495 37.6331 19.9839 37.988 20.4652 38.3531L23.9359 33.7258L30.3934 25.1127L32.0958 22.8409H29.38Z" fill="#3398FF"/>
<path d="M26.487 13.7231H41.4236C46.7537 10.9696 51.5797 7.36914 55.7116 3.09427C53.3024 1.57042 50.4524 0.672852 47.387 0.672852H25.1773C25.1722 1.02275 25.1494 1.37012 25.1494 1.72255C25.1494 5.84783 25.6206 9.85902 26.487 13.7231Z" fill="#007EFF"/>
<path d="M39.4929 28.5938L35.5586 33.8474C37.4383 36.4412 39.5385 38.8576 41.8337 41.0787H72.4997L63.0149 36.4362V34.3621C57.2414 30.6121 50.3583 28.429 42.9635 28.429C41.7931 28.4239 40.6354 28.4848 39.4929 28.5938Z" fill="#4DA5FF"/>
<path d="M54.4222 50.1939H31.0142C33.3499 54.162 35.0371 58.5611 35.9212 63.2417H47.3871H63.0153V54.697L72.5001 50.1914H54.4222V50.1939Z" fill="#007EFF"/>
</svg>
